<?xml version="1.0" standalone="no"?>
<!DOCTYPE svg PUBLIC "-//W3C//DTD SVG 20010904//EN"
 "http://www.w3.org/TR/2001/REC-SVG-20010904/DTD/svg10.dtd">
<svg version="1.0" xmlns="http://www.w3.org/2000/svg"
 width="2800.000000pt" height="1552.000000pt" viewBox="0 0 2800.000000 1552.000000"
 preserveAspectRatio="xMidYMid meet">
<metadata>
Created by potrace 1.16, written by Peter Selinger 2001-2019
</metadata>
<g transform="translate(0.000000,1552.000000) scale(0.100000,-0.100000)"
fill="#000000" stroke="none">
<path d="M5257 14494 c-1 -2 -25 -5 -52 -8 -68 -7 -178 -31 -249 -56 -64 -22
-261 -124 -272 -141 -3 -6 -19 -19 -35 -28 -42 -26 -130 -110 -185 -178 -26
-32 -50 -60 -53 -63 -9 -8 -61 -89 -61 -96 0 -3 -8 -18 -18 -32 -53 -78 -113
-266 -132 -416 -30 -234 31 -538 142 -703 15 -23 28 -46 28 -51 0 -10 -16 -27
-154 -173 -44 -47 -128 -136 -186 -198 -58 -62 -136 -145 -174 -184 -37 -40
-123 -130 -190 -201 -66 -71 -143 -152 -171 -181 -27 -28 -115 -121 -195 -206
-80 -84 -185 -196 -235 -248 -49 -52 -101 -106 -115 -121 -41 -44 -272 -289
-320 -339 -25 -27 -112 -118 -194 -204 -82 -87 -180 -190 -217 -229 l-68 -73
-28 25 c-15 14 -32 31 -38 37 -32 39 -185 141 -280 187 -176 87 -349 122 -555
113 -212 -9 -278 -40 -294 -137 -10 -62 7 -102 54 -129 46 -26 73 -27 183 -13
157 22 345 -8 492 -78 76 -36 207 -133 263 -195 74 -81 129 -171 171 -279 105
-267 76 -557 -78 -796 -20 -30 -39 -57 -43 -60 -3 -3 -19 -22 -35 -42 -89
-111 -266 -221 -430 -265 -83 -22 -118 -26 -228 -26 -157 1 -246 18 -359 71
-144 68 -245 148 -342 269 -37 47 -118 195 -132 243 -51 175 -59 336 -23 483
30 127 28 162 -11 201 -66 65 -185 51 -222 -27 -42 -90 -58 -186 -60 -357 -1
-247 36 -389 159 -605 27 -47 42 -67 113 -153 161 -195 409 -335 688 -388 101
-19 332 -15 417 6 34 9 51 10 59 2 6 -6 157 -386 335 -844 179 -458 364 -934
413 -1058 250 -642 519 -1332 570 -1465 32 -82 130 -336 219 -563 89 -228 161
-418 161 -423 0 -5 -18 -18 -40 -29 -96 -49 -250 -186 -330 -293 -72 -97 -136
-218 -173 -328 -108 -324 -68 -690 106 -965 70 -111 92 -140 166 -214 171
-171 355 -270 598 -319 251 -52 508 -15 743 106 125 64 151 82 252 173 214
195 347 470 374 773 l6 68 91 -6 c51 -3 126 -8 167 -10 41 -3 98 -7 125 -10
28 -3 93 -7 145 -10 52 -3 185 -12 295 -20 215 -16 283 -21 415 -30 47 -3 139
-10 205 -15 66 -5 165 -12 220 -15 55 -3 152 -10 215 -15 124 -10 213 -16 355
-25 50 -3 119 -7 155 -10 86 -7 176 -13 280 -20 47 -2 114 -7 150 -10 74 -6
167 -13 289 -21 119 -8 127 -12 134 -73 12 -98 112 -317 197 -430 87 -115 287
-285 400 -338 272 -128 514 -155 812 -89 79 17 209 68 258 100 19 13 49 32 66
42 155 94 309 255 396 414 207 380 189 835 -46 1198 -55 84 -185 224 -264 282
-29 22 -55 40 -57 40 -3 0 -28 15 -57 33 -29 18 -65 38 -80 45 -28 11 -37 39
-19 58 4 5 39 68 76 139 37 72 80 153 95 180 15 28 51 95 80 150 59 111 109
205 150 280 15 28 47 88 72 135 96 180 143 268 185 345 103 190 143 276 143
307 0 67 -64 128 -135 128 -43 0 -99 -35 -121 -76 -11 -22 -44 -84 -74 -139
-29 -55 -68 -128 -87 -163 -19 -34 -51 -95 -72 -135 -21 -40 -75 -142 -121
-227 -45 -85 -100 -186 -120 -225 -48 -90 -195 -365 -230 -430 -15 -27 -49
-90 -75 -139 l-48 -88 -67 6 c-102 10 -226 8 -310 -5 -41 -6 -85 -12 -98 -13
-21 -1 -33 26 -153 334 -319 817 -356 916 -352 926 2 5 29 26 61 45 31 19 86
59 122 88 322 271 472 682 402 1102 -17 100 -110 338 -148 381 -20 21 -12 63
15 77 10 6 63 48 118 93 55 46 117 97 138 113 20 17 69 56 109 87 39 32 82 67
96 77 14 11 71 57 126 103 56 46 119 97 140 113 20 17 84 68 141 115 87 72
181 148 341 277 15 12 73 60 128 105 56 46 119 97 139 113 21 17 70 56 109 88
98 81 111 91 231 187 58 47 150 121 204 165 55 44 147 118 205 165 59 47 154
124 214 172 59 48 118 96 132 107 14 11 57 46 96 78 40 32 89 72 110 88 20 17
52 42 70 58 30 26 64 36 64 19 0 -13 169 -136 243 -177 58 -32 67 -40 61 -59
-3 -11 -10 -25 -14 -31 -6 -9 -99 -180 -207 -385 -19 -36 -47 -87 -63 -115
-15 -27 -53 -99 -85 -160 -32 -60 -70 -132 -85 -160 -15 -27 -67 -124 -115
-215 -48 -91 -100 -187 -115 -215 -102 -189 -86 -170 -169 -206 -338 -145
-556 -392 -670 -759 -50 -161 -76 -412 -63 -603 6 -85 4 -113 -7 -135 -39 -74
-29 -139 27 -187 21 -17 37 -50 62 -126 81 -248 236 -467 425 -601 225 -160
567 -237 932 -209 335 25 600 101 836 240 l87 52 -7 137 c-10 177 -10 807 0
985 l8 137 -58 -7 c-66 -8 -768 -11 -918 -3 l-100 5 -3 -278 -2 -278 62 6 c35
4 137 7 228 8 l165 2 3 -177 2 -176 -56 -26 c-179 -82 -414 -106 -587 -61
-134 35 -250 119 -316 230 -156 259 -173 764 -36 1053 103 218 277 325 525
325 207 -1 343 -78 421 -239 23 -48 45 -81 52 -79 7 3 149 36 315 74 167 38
306 72 309 74 8 9 -54 156 -96 227 -80 134 -260 299 -406 373 -145 72 -367
117 -584 117 l-132 0 67 128 c68 130 266 501 286 537 6 11 45 83 86 160 41 77
87 163 102 190 15 28 57 107 94 177 36 69 72 128 79 131 7 2 35 1 62 -4 228
-37 545 34 753 169 369 239 572 660 527 1097 -27 266 -136 493 -330 690 -153
154 -329 255 -535 307 -140 34 -345 43 -460 19 -25 -6 -62 -13 -84 -16 -66
-11 -239 -83 -327 -136 -98 -60 -183 -130 -259 -214 -59 -67 -75 -79 -90 -70
-6 4 -86 33 -178 65 -92 32 -259 91 -372 130 -113 40 -254 90 -315 111 -60 21
-159 56 -220 77 -60 21 -153 53 -205 71 -52 18 -104 37 -115 41 -11 5 -67 26
-125 46 -58 19 -127 44 -155 53 -107 39 -259 92 -465 164 -118 41 -294 103
-390 137 -96 34 -193 68 -215 75 -22 7 -112 39 -200 70 -88 31 -254 90 -370
130 -196 69 -422 148 -660 231 -55 20 -149 53 -210 74 -60 21 -157 55 -215 76
-58 20 -150 52 -205 70 -55 19 -109 38 -120 43 -11 5 -60 23 -110 40 -49 16
-142 48 -205 71 -63 23 -160 57 -214 76 -55 18 -102 38 -106 44 -3 5 9 56 27
112 69 215 72 481 6 683 -46 144 -124 295 -197 384 -69 84 -190 194 -269 244
-189 121 -395 185 -614 191 -57 1 -104 1 -106 0z m1108 -1888 c55 -19 172 -60
260 -91 88 -31 216 -76 285 -100 69 -24 170 -60 225 -80 55 -19 143 -50 195
-67 52 -17 100 -34 105 -38 6 -4 26 -13 45 -18 19 -6 114 -38 210 -72 96 -34
218 -77 270 -95 52 -18 174 -61 270 -95 96 -34 270 -95 385 -135 116 -40 282
-99 370 -130 88 -31 185 -65 215 -75 30 -10 204 -71 385 -135 182 -64 348
-123 370 -130 22 -7 112 -39 200 -70 88 -31 216 -76 285 -100 69 -24 170 -60
225 -80 55 -19 141 -49 190 -65 50 -17 99 -35 110 -40 11 -5 65 -24 120 -43
221 -76 570 -200 574 -203 2 -1 -8 -36 -22 -76 -29 -84 -59 -225 -59 -275 0
-26 -5 -36 -21 -43 -12 -5 -116 -14 -232 -20 -115 -6 -235 -13 -265 -15 -30
-2 -100 -6 -155 -10 -55 -3 -127 -7 -160 -10 -33 -2 -179 -11 -325 -20 -146
-8 -292 -17 -325 -20 -33 -2 -107 -7 -165 -10 -58 -3 -134 -8 -170 -10 -36 -3
-216 -14 -400 -25 -184 -11 -369 -22 -410 -25 -41 -3 -111 -7 -155 -10 -44 -2
-111 -7 -150 -10 -38 -2 -227 -14 -420 -25 -192 -11 -356 -23 -363 -25 -26 -9
-50 15 -61 62 -7 26 -33 100 -57 163 -48 122 -72 153 -132 169 -44 13 -116
-12 -141 -47 -36 -53 -34 -83 15 -209 52 -131 65 -197 68 -328 9 -359 -211
-693 -549 -831 -44 -18 -111 -39 -150 -46 -73 -14 -241 -17 -310 -7 -133 21
-288 85 -393 164 -160 120 -300 333 -334 509 -16 86 -21 270 -8 343 40 232
183 455 373 581 144 96 323 151 489 152 90 0 139 21 166 69 37 65 6 161 -62
191 -35 16 -203 17 -263 1 -75 -18 -120 -21 -130 -8 -13 16 -493 1254 -493
1270 0 7 30 32 68 57 60 39 182 137 207 167 45 53 91 103 95 103 3 0 50 -15
105 -34z m-1773 -137 c41 -39 176 -128 254 -167 78 -39 197 -76 318 -97 110
-20 323 -17 409 5 28 7 52 9 57 4 5 -5 86 -207 181 -449 94 -242 204 -525 245
-630 41 -104 72 -195 70 -201 -2 -6 -30 -28 -63 -49 -224 -148 -376 -336 -467
-579 -27 -70 -66 -239 -66 -283 0 -16 -4 -33 -8 -39 -7 -12 -13 -13 -537 -44
-181 -11 -361 -22 -400 -25 -38 -2 -110 -7 -160 -10 -49 -3 -121 -7 -160 -10
-38 -3 -223 -14 -410 -25 -187 -11 -369 -23 -405 -25 -36 -3 -108 -7 -160 -10
-52 -2 -122 -7 -155 -10 -33 -3 -107 -7 -165 -10 -58 -3 -170 -9 -250 -15 -80
-5 -175 -10 -212 -10 l-67 0 -10 38 c-26 92 -61 193 -85 240 -14 28 -26 59
-26 69 0 10 37 57 83 105 45 47 141 148 212 224 155 163 173 182 337 355 69
74 150 159 178 189 164 174 301 319 340 361 63 66 340 357 370 389 14 15 81
87 150 160 69 73 145 154 170 180 25 26 92 98 150 160 157 168 229 240 239
240 6 0 25 -14 43 -31z m8374 -1342 c591 -181 822 -880 454 -1373 -160 -213
-390 -335 -660 -349 -74 -3 -225 17 -301 41 -130 41 -235 104 -347 209 -102
96 -163 194 -221 359 -76 214 -58 455 50 667 38 76 136 204 196 256 121 105
272 180 417 208 111 21 311 12 412 -18z m-1390 -1055 c5 -4 25 -52 42 -108 18
-56 52 -144 77 -198 39 -85 48 -126 26 -126 -4 0 -56 -41 -116 -90 -61 -50
-125 -103 -144 -118 -19 -15 -64 -52 -101 -82 -37 -30 -84 -68 -105 -85 -20
-16 -81 -66 -135 -110 -53 -44 -114 -93 -135 -110 -20 -16 -81 -66 -135 -110
-54 -44 -133 -107 -174 -140 -73 -58 -213 -170 -443 -358 -60 -48 -121 -97
-137 -110 -16 -12 -62 -49 -102 -82 -39 -33 -86 -71 -104 -85 -18 -14 -76 -61
-130 -105 -54 -44 -115 -93 -135 -110 -21 -16 -82 -66 -136 -110 -53 -44 -148
-120 -209 -170 -61 -49 -171 -138 -243 -198 -73 -59 -149 -121 -169 -137 -36
-30 -72 -39 -82 -21 -4 5 -39 34 -79 64 -136 102 -323 180 -506 211 -319 54
-660 -42 -916 -258 -68 -57 -165 -164 -204 -225 -14 -23 -33 -41 -42 -41 -8 0
-37 11 -65 24 -27 13 -71 34 -99 46 -27 13 -131 61 -230 108 -99 46 -208 97
-243 113 -35 16 -106 49 -158 74 -52 25 -96 45 -98 45 -19 0 -276 132 -276
142 0 7 27 76 59 153 33 77 116 277 186 445 69 168 130 314 135 325 5 11 30
70 55 130 25 61 52 116 58 122 10 10 24 9 67 -2 79 -22 333 -31 423 -16 149
25 327 94 457 176 30 19 95 71 144 116 205 191 317 407 366 706 6 40 15 75 19
78 4 2 163 13 353 25 189 11 371 22 404 25 32 2 106 7 164 10 58 3 137 8 175
10 39 3 219 14 400 25 393 24 454 28 565 35 194 12 246 16 485 30 138 8 282
17 320 20 39 2 115 7 170 11 55 3 224 14 375 24 151 9 284 18 295 19 11 0 25
-3 31 -7z m-6044 -374 c9 -7 21 -38 27 -68 26 -121 105 -285 203 -420 53 -72
183 -194 268 -252 44 -29 80 -57 80 -61 0 -4 -39 -99 -86 -210 -121 -286 -159
-377 -284 -682 -62 -148 -115 -274 -119 -278 -7 -7 -48 9 -221 91 -47 22 -123
58 -170 80 -47 22 -130 61 -185 87 -55 26 -152 71 -215 100 -145 67 -205 94
-585 272 -170 80 -348 164 -395 185 -47 22 -196 91 -332 154 -136 62 -300 138
-364 169 -64 30 -118 55 -121 55 -2 0 -74 34 -160 75 -85 41 -157 75 -158 75
-2 0 -49 22 -106 49 -57 26 -125 58 -151 70 -27 12 -48 27 -48 34 0 7 9 53 20
103 11 49 20 108 20 132 0 35 4 44 23 51 13 5 145 17 293 25 148 9 298 19 334
21 36 3 106 7 155 10 135 8 242 15 325 20 41 3 190 12 330 20 140 8 287 17
325 20 39 3 111 7 160 10 50 3 122 8 160 10 165 11 748 47 840 52 55 3 102 7
104 9 7 7 17 4 33 -8z m-3106 -789 c217 -103 293 -139 439 -204 77 -34 198
-90 269 -124 70 -33 130 -61 131 -61 2 0 73 -34 160 -75 86 -41 158 -75 160
-75 2 0 65 -29 140 -65 76 -36 138 -65 140 -65 2 0 56 -25 121 -56 66 -31 166
-79 224 -106 58 -28 130 -61 160 -75 30 -14 102 -47 159 -74 57 -27 105 -49
106 -49 2 0 90 -41 197 -91 106 -50 220 -104 253 -119 33 -15 114 -53 180 -85
66 -31 143 -66 170 -77 28 -12 56 -27 64 -33 15 -14 18 -6 -204 -540 -64 -154
-175 -422 -247 -595 -72 -173 -148 -355 -168 -405 -21 -49 -62 -148 -92 -220
-31 -71 -86 -204 -123 -295 -77 -188 -201 -485 -215 -515 -8 -17 -84 -200
-262 -632 -16 -40 -33 -75 -37 -78 -4 -2 -52 5 -107 16 -83 18 -123 20 -244
16 -80 -3 -166 -11 -193 -18 -40 -11 -49 -11 -61 1 -13 13 -205 500 -596 1510
-67 173 -190 488 -272 700 -83 212 -236 603 -340 870 -497 1275 -491 1259
-477 1276 7 8 26 22 41 30 93 48 244 185 323 293 33 45 63 81 66 81 4 0 65
-28 135 -61z m3431 -1600 c48 -23 169 -78 268 -124 99 -46 239 -111 310 -145
139 -66 214 -101 323 -151 154 -70 173 -81 167 -98 -29 -93 -47 -219 -47 -341
-1 -190 31 -332 113 -507 22 -45 39 -86 39 -91 0 -4 -37 -38 -82 -76 -46 -37
-96 -78 -113 -91 -16 -14 -64 -52 -105 -86 -41 -33 -87 -70 -102 -82 -14 -12
-43 -35 -64 -52 -20 -16 -54 -43 -74 -60 -20 -16 -54 -43 -75 -60 -20 -16 -81
-66 -135 -110 -53 -44 -114 -93 -135 -110 -20 -16 -81 -66 -135 -110 -54 -44
-146 -118 -205 -165 -58 -47 -150 -121 -204 -165 -54 -44 -115 -93 -136 -110
-20 -16 -98 -79 -171 -140 -120 -99 -298 -243 -372 -302 -67 -53 -179 -145
-197 -162 -11 -10 -35 -28 -54 -39 l-34 -21 -66 53 c-36 28 -87 67 -113 86
-27 18 -48 40 -48 47 0 12 33 100 60 158 10 22 108 257 195 470 32 77 63 154
71 170 57 131 288 686 379 910 9 22 20 49 25 60 9 21 90 215 145 350 104 256
156 380 230 555 45 107 115 274 155 370 76 183 88 210 95 210 2 0 43 -18 92
-41z m1379 -1700 c59 -67 236 -179 349 -223 39 -15 77 -31 86 -36 9 -4 63 -18
120 -29 160 -32 294 -33 467 -3 36 6 55 6 61 -2 11 -13 491 -1242 491 -1256 0
-6 -4 -10 -9 -10 -17 0 -148 -93 -214 -151 -82 -73 -190 -212 -247 -314 -50
-91 -95 -221 -115 -335 -27 -150 -8 -133 -143 -126 -64 3 -144 8 -177 11 -59
4 -153 11 -270 20 -33 2 -103 7 -155 10 -52 3 -149 10 -215 15 -66 5 -158 12
-205 15 -103 6 -173 11 -350 25 -74 5 -175 12 -225 15 -49 3 -144 10 -210 15
-114 9 -180 14 -360 25 -44 3 -168 12 -275 20 -107 8 -303 22 -435 31 -144 10
-243 21 -247 28 -4 6 -17 42 -28 79 -12 38 -41 109 -65 159 -25 50 -45 96 -44
102 0 6 47 49 105 96 188 152 329 267 404 330 16 14 76 62 132 108 57 45 148
119 204 165 56 45 118 96 139 112 20 17 83 67 139 113 134 109 143 117 231
187 42 33 136 110 210 170 74 61 182 148 240 195 59 47 117 94 130 105 13 11
74 61 136 110 61 50 152 125 202 167 51 42 99 77 108 77 9 1 24 -9 35 -20z
m-3200 -1673 c158 -43 282 -110 397 -217 115 -105 176 -202 234 -369 98 -281
30 -622 -168 -846 -116 -131 -222 -198 -419 -265 -161 -56 -371 -49 -547 17
-502 189 -721 771 -467 1243 130 242 379 412 659 451 77 11 248 3 311 -14z
m5482 -32 c309 -64 538 -254 655 -543 92 -230 78 -508 -38 -728 -42 -80 -136
-197 -210 -260 -96 -82 -238 -157 -350 -184 -164 -40 -355 -33 -505 19 -127
44 -276 140 -350 225 -19 22 -43 49 -54 60 -36 38 -114 178 -139 249 -113 329
-30 694 213 926 103 99 193 154 340 204 140 49 300 61 438 32z"/>
<path d="M7180 10892 c-58 -26 -96 -78 -92 -126 10 -140 206 -181 259 -54 28
65 1 145 -57 175 -27 14 -85 16 -110 5z"/>
<path d="M571 10456 c-80 -23 -109 -127 -57 -206 37 -55 89 -71 153 -44 56 23
83 68 83 136 0 42 -4 50 -41 81 -44 38 -86 48 -138 33z"/>
<path d="M13374 7733 c34 -195 35 -2343 1 -2548 l-7 -40 689 2 c407 2 728 7
787 14 140 15 237 42 346 95 78 39 110 62 176 128 132 132 184 270 184 486 0
341 -155 546 -489 646 -8 3 27 25 78 50 223 109 333 308 318 573 -14 250 -123
424 -329 526 -196 96 -292 105 -1137 105 l-624 0 7 -37z m1202 -492 c171 -17
246 -89 246 -236 0 -109 -53 -190 -146 -222 -45 -16 -90 -18 -356 -18 l-305 0
-3 230 c-1 126 0 235 2 242 6 14 422 18 562 4z m164 -1017 c25 -12 60 -36 79
-55 116 -117 101 -338 -29 -434 -67 -49 -105 -54 -443 -55 -172 -1 -318 -1
-324 0 -10 0 -13 64 -13 286 l0 285 343 -3 c322 -3 345 -4 387 -24z"/>
<path d="M15867 7763 c-3 -5 0 -42 5 -83 14 -114 22 -2087 9 -2305 -6 -99 -14
-190 -17 -202 l-6 -23 309 0 c170 0 312 2 314 5 3 2 1 30 -3 62 -5 32 -13 387
-18 788 -5 402 -12 762 -15 800 -4 67 -1 60 79 -180 46 -137 154 -455 241
-705 177 -512 210 -615 227 -706 l11 -64 277 0 277 0 12 60 c18 92 68 241 271
820 104 294 210 608 236 697 27 89 49 161 51 160 1 -2 -2 -66 -8 -142 -6 -77
-14 -450 -19 -830 -5 -379 -12 -707 -16 -727 l-6 -38 311 0 312 0 -8 93 c-11
123 -10 2294 0 2425 l9 102 -417 0 c-324 0 -416 -3 -419 -12 -2 -7 -13 -60
-25 -118 -12 -58 -69 -242 -126 -410 -126 -372 -424 -1233 -429 -1237 -4 -5
-18 32 -182 502 -260 746 -363 1058 -387 1165 l-22 105 -412 3 c-226 1 -414
-1 -416 -5z"/>
<path d="M12846 4003 c-1 -2 2 -35 8 -75 15 -101 15 -2389 0 -2475 l-11 -63
335 0 334 0 -7 38 c-3 20 -9 241 -12 490 l-5 453 219 -3 c208 -3 220 -4 268
-28 81 -39 150 -116 200 -222 53 -115 182 -468 219 -603 15 -55 29 -106 31
-112 3 -10 85 -13 365 -13 198 0 360 2 360 4 0 3 -21 49 -46 103 -25 54 -91
206 -146 338 -207 497 -257 596 -339 676 -26 25 -72 56 -103 70 -30 13 -56 27
-56 30 0 3 19 11 43 18 131 39 274 153 334 266 56 108 74 185 80 341 6 150 -7
242 -48 347 -64 162 -209 296 -387 358 -140 49 -166 51 -727 55 -291 2 -615 5
-718 7 -104 1 -190 1 -191 0z m1234 -544 c116 -25 187 -109 197 -232 11 -129
-50 -239 -159 -288 -51 -23 -62 -24 -340 -27 l-288 -3 0 280 0 281 270 0 c156
0 290 -5 320 -11z"/>
<path d="M19917 3858 c10 -183 11 -2195 0 -2350 l-8 -118 307 0 306 0 -6 38
c-4 20 -11 361 -15 757 -5 396 -11 727 -14 735 -7 19 -19 225 -13 219 3 -2 39
-112 82 -244 42 -132 158 -474 257 -760 98 -286 192 -569 207 -630 l28 -110
274 0 273 0 3 25 c11 85 81 295 408 1219 31 85 76 224 101 310 54 186 66 211
58 121 -3 -36 -9 -393 -14 -795 -5 -401 -11 -737 -14 -745 -3 -8 -8 -43 -11
-77 l-6 -63 311 0 c291 0 310 1 305 18 -35 112 -38 2318 -3 2572 2 13 -50 15
-412 15 l-414 0 -18 -90 c-9 -50 -27 -124 -39 -165 -17 -57 -327 -959 -507
-1478 -9 -24 -19 -40 -24 -35 -7 7 -321 901 -466 1328 -54 159 -88 279 -119
423 l-4 22 -411 0 -410 0 8 -142z"/>
<path d="M11530 3368 c-510 -31 -857 -381 -898 -905 -58 -740 400 -1204 1126
-1142 266 23 466 109 609 263 75 80 123 158 168 274 52 134 56 126 -82 147
-65 10 -192 30 -283 45 -148 24 -166 25 -172 11 -3 -9 -13 -37 -22 -62 -48
-135 -224 -226 -386 -200 -225 36 -353 238 -353 556 1 312 115 495 335 536
173 32 328 -54 392 -217 l28 -71 232 48 c288 59 316 66 323 72 9 10 -28 109
-73 197 -115 224 -311 368 -589 431 -76 17 -238 25 -355 17z"/>
<path d="M16218 3369 c-150 -10 -254 -37 -381 -100 -243 -121 -408 -334 -483
-625 -26 -101 -28 -123 -28 -299 0 -159 3 -205 21 -282 71 -300 239 -527 480
-647 275 -136 703 -141 989 -11 194 88 324 215 423 412 l41 82 -68 20 c-128
38 -462 131 -470 131 -4 0 -22 -30 -41 -66 -48 -94 -134 -156 -258 -188 -192
-50 -396 18 -480 161 -28 49 -63 152 -63 189 l0 24 703 0 702 0 -7 133 c-4 72
-14 177 -23 232 -88 568 -474 872 -1057 834z m181 -470 c85 -13 162 -52 212
-106 44 -47 89 -134 89 -170 l0 -23 -395 0 c-453 0 -418 -9 -364 98 79 158
253 235 458 201z"/>
<path d="M26440 3350 c-171 -17 -324 -73 -448 -165 -34 -25 -63 -42 -63 -37
-1 4 -2 39 -3 77 l-1 70 -308 3 -308 2 8 -97 c10 -127 11 -2146 0 -2280 l-8
-103 322 0 321 0 -6 32 c-7 34 -25 730 -20 737 2 2 31 -18 66 -44 162 -122
355 -172 622 -162 112 4 159 10 229 31 330 98 533 327 613 691 21 95 30 358
15 467 -50 377 -228 616 -541 726 -139 48 -324 68 -490 52z m103 -485 c160
-42 264 -151 308 -325 18 -70 18 -268 0 -340 -47 -193 -178 -316 -364 -343
-254 -37 -486 134 -542 399 -8 38 -15 87 -15 109 0 63 27 172 58 239 34 72
126 176 189 213 103 60 247 79 366 48z"/>
<path d="M18247 3340 c-404 -46 -683 -311 -753 -713 -12 -70 -15 -131 -11
-257 6 -194 25 -278 91 -415 126 -261 330 -405 638 -451 252 -37 491 14 657
139 35 26 65 47 66 45 2 -2 -1 -39 -6 -82 -23 -183 -99 -287 -254 -346 -47
-18 -87 -24 -182 -28 -204 -8 -336 35 -457 149 l-62 58 -220 -146 c-120 -80
-220 -149 -222 -153 -5 -12 119 -121 192 -168 153 -99 330 -152 576 -173 353
-28 692 37 891 172 162 109 259 265 310 494 21 97 22 125 30 925 4 454 11 844
14 868 l7 42 -305 0 -306 0 -3 -65 -3 -64 -64 41 c-169 107 -396 154 -624 128z
m364 -460 c147 -45 247 -152 294 -314 27 -94 17 -260 -21 -349 -60 -141 -193
-247 -334 -266 -206 -28 -377 76 -445 269 -42 119 -39 294 6 414 78 209 288
312 500 246z"/>
<path d="M23807 3335 c-138 -22 -203 -43 -325 -102 -97 -46 -125 -65 -192
-131 -64 -64 -85 -93 -123 -172 -25 -52 -48 -104 -51 -115 -6 -20 7 -23 290
-69 162 -26 297 -46 298 -44 2 1 14 25 27 51 31 64 83 109 155 137 48 18 80
23 169 23 210 2 289 -54 302 -213 l6 -69 -34 -5 c-19 -3 -108 -7 -199 -10
-648 -21 -1007 -202 -1079 -544 -27 -131 -3 -315 56 -425 16 -28 55 -80 87
-115 47 -50 78 -72 150 -107 132 -63 218 -80 411 -79 170 0 247 11 359 50 70
24 161 71 205 105 13 11 28 19 32 19 5 0 9 -29 9 -65 l0 -65 303 0 303 0 -8
68 c-5 37 -13 368 -17 737 -9 714 -8 708 -60 815 -78 162 -222 260 -456 310
-133 28 -484 37 -618 15z m550 -1197 c-14 -178 -119 -290 -323 -342 -74 -19
-210 -21 -267 -4 -57 17 -122 83 -131 130 -33 184 191 291 623 297 l104 1 -6
-82z"/>
</g>
</svg>
