<svg id="svg" version="1.1" xmlns="http://www.w3.org/2000/svg" viewBox="0 0 438 1638" style="display: block;"><path d="M0 0 C144.54 0 289.08 0 438 0 C438 540.54 438 1081.08 438 1638 C293.46 1638 148.92 1638 0 1638 C0 1097.46 0 556.92 0 0 Z " transform="translate(0,0)" style="fill: #FEFEFE;"/><path d="M0 0 C0.67562988 0.30381592 1.35125977 0.60763184 2.04736328 0.9206543 C21.98263623 10.22768596 36.34094399 25.91281324 44.19921875 46.328125 C51.06520645 65.68036037 49.64855562 87.51259978 41.05078125 106.05273438 C31.41682003 125.66617863 15.6148127 139.60667992 -4.93286133 147.05883789 C-11.17055532 149.17646731 -17.29580905 150.4343854 -23.875 150.9375 C-25.09445313 151.03160156 -26.31390625 151.12570312 -27.5703125 151.22265625 C-48.88244163 152.04887199 -68.35097191 143.95829241 -84 129.7265625 C-98.40686678 116.04760172 -107.64350464 96.77172246 -108.15893555 76.91894531 C-108.34456078 59.98103918 -105.32007934 46.6429256 -96.875 31.9375 C-96.40191406 31.08542969 -95.92882812 30.23335937 -95.44140625 29.35546875 C-88.88206714 18.55299634 -78.83671579 9.97862337 -67.875 3.9375 C-66.67810547 3.24914062 -66.67810547 3.24914062 -65.45703125 2.546875 C-46.34093313 -7.8063788 -19.95471061 -9.0908249 0 0 Z " transform="translate(239.875,610.0625)" style="fill: #ED220D;"/><path d="M0 0 C1.15628906 0.30679688 2.31257813 0.61359375 3.50390625 0.9296875 C25.59444954 7.50020807 41.36291629 22.76700973 52.3125 42.75 C60.53346289 60.17660936 61.80159056 81.41114178 55.77734375 99.71484375 C47.58357365 121.93245778 33.13394217 138.42074368 11.5625 148.38549805 C-0.89747075 153.77034109 -13.59333072 154.57710828 -27 154 C-27.81726563 153.98066406 -28.63453125 153.96132813 -29.4765625 153.94140625 C-48.20143398 152.78425127 -65.50208681 141.27097999 -78 128 C-93.06049119 110.23830396 -98.22126805 89.77073974 -97 67 C-95.12276729 48.04288937 -86.15197583 32.40578589 -73 19 C-72.40960938 18.38511719 -71.81921875 17.77023438 -71.2109375 17.13671875 C-62.98616765 9.25615733 -51.08597522 2.64357871 -40 0 C-39.3090625 -0.20109375 -38.618125 -0.4021875 -37.90625 -0.609375 C-26.10226922 -3.60079479 -11.70184553 -3.18988616 0 0 Z " transform="translate(229,212)" style="fill: #01A1FE;"/><path d="M0 0 C3.04205093 1.43669138 6.08365047 2.87432518 9.125 4.3125 C9.9809375 4.71662109 10.836875 5.12074219 11.71875 5.53710938 C16.17134691 7.64353022 20.60584463 9.77410818 25 12 C25 12.66 25 13.32 25 14 C21.02244073 16.00320878 17.04269245 18.00202889 13.0625 20 C11.92619141 20.57234375 10.78988281 21.1446875 9.61914062 21.734375 C8.53955078 22.27578125 7.45996094 22.8171875 6.34765625 23.375 C5.34742432 23.87773438 4.34719238 24.38046875 3.31665039 24.8984375 C1 26 1 26 0 26 C0 22.7 0 19.4 0 16 C-63.36 16 -126.72 16 -192 16 C-192 14.02 -192 12.04 -192 10 C-128.64 10 -65.28 10 0 10 C0 6.7 0 3.4 0 0 Z " transform="translate(293,986)" style="fill: #ED220E;"/><path d="M0 0 C71.94 0 143.88 0 218 0 C218 1.98 218 3.96 218 6 C146.06 6 74.12 6 0 6 C0 4.02 0 2.04 0 0 Z " transform="translate(101,1294)" style="fill: #55C1FE;"/><path d="M0 0 C3.50625 -0.103125 7.0125 -0.20625 10.625 -0.3125 C11.71893066 -0.35802002 12.81286133 -0.40354004 13.93994141 -0.45043945 C22.01785422 -0.56528778 22.01785422 -0.56528778 25.6796875 2.23046875 C28.06340974 5.07568603 28.74859607 6.00792713 28.5 9.625 C28.45359375 10.75808594 28.45359375 10.75808594 28.40625 11.9140625 C28 14 28 14 26 17 C25.34 17 24.68 17 24 17 C24 17.66 24 18.32 24 19 C24.99 19.33 25.98 19.66 27 20 C28.35091528 22.70183055 28.33858058 25.11808206 28.5625 28.125 C28.68818359 29.76855469 28.68818359 29.76855469 28.81640625 31.4453125 C28.87699219 32.28835938 28.93757813 33.13140625 29 34 C26.36 34 23.72 34 21 34 C20.80083984 32.82630859 20.80083984 32.82630859 20.59765625 31.62890625 C20.42105469 30.61699219 20.24445313 29.60507813 20.0625 28.5625 C19.80146484 27.04849609 19.80146484 27.04849609 19.53515625 25.50390625 C19.25248903 23.0712562 19.25248903 23.0712562 18 22 C16.31816052 21.76712992 14.6287584 21.58735834 12.9375 21.4375 C11.308125 21.293125 9.67875 21.14875 8 21 C8 25.29 8 29.58 8 34 C5.36 34 2.72 34 0 34 C0 22.78 0 11.56 0 0 Z " transform="translate(91,1038)" style="fill: #040404;"/><path d="M0 0 C8 0 16 0 24 0 C24.67260351 1.76858691 25.33788395 3.53996016 26 5.3125 C26.37125 6.29863281 26.7425 7.28476563 27.125 8.30078125 C28 11 28 11 28 14 C28.66 14 29.32 14 30 14 C30.103125 12.989375 30.20625 11.97875 30.3125 10.9375 C31.03704767 6.78781792 32.22269266 3.78643737 34 0 C36.31 0 38.62 0 41 0 C39.94989295 5.91927351 37.82405004 11.37522998 35.75 17 C35.17572266 18.62035156 35.17572266 18.62035156 34.58984375 20.2734375 C30.78761376 30.573793 30.78761376 30.573793 26 34 C23.14432587 34.62296556 20.96007574 34.25085388 18 34 C18 31.69 18 29.38 18 27 C19.98 27 21.96 27 24 27 C22.38808348 20.14078075 20.64031672 13.53792711 18 7 C16.700625 7.12375 15.40125 7.2475 14.0625 7.375 C13.33160156 7.44460938 12.60070312 7.51421875 11.84765625 7.5859375 C11.23792969 7.72257812 10.62820313 7.85921875 10 8 C8.47893366 11.04213267 8.62570662 14.28047572 8.4375 17.625 C8.39431641 18.33140625 8.35113281 19.0378125 8.30664062 19.765625 C8.20055249 21.51018537 8.09977111 23.25506697 8 25 C5.36 25 2.72 25 0 25 C0 16.75 0 8.5 0 0 Z " transform="translate(314,1334)" style="fill: #131313;"/><path d="M0 0 C0.7734375 0.02707031 1.546875 0.05414062 2.34375 0.08203125 C3.0553125 0.11683594 3.766875 0.15164063 4.5 0.1875 C5.49 0.1875 6.48 0.1875 7.5 0.1875 C9.83333333 0.1875 12.16666667 0.1875 14.5 0.1875 C14.64564235 4.56214796 14.73419143 8.9361696 14.8125 13.3125 C14.85439453 14.55 14.89628906 15.7875 14.93945312 17.0625 C15.07761529 27.34176481 15.07761529 27.34176481 12.16796875 30.9921875 C7.97056457 34.44598128 4.26837297 34.58139365 -0.98046875 34.54296875 C-5.11147618 33.96014445 -6.76813672 32.27881897 -9.5 29.1875 C-9.5 28.1975 -9.5 27.2075 -9.5 26.1875 C-6.125 26.0625 -6.125 26.0625 -2.5 26.1875 C-1.84 26.8475 -1.18 27.5075 -0.5 28.1875 C3.08343976 28.35427282 3.08343976 28.35427282 6.5 28.1875 C6.5 26.5375 6.5 24.8875 6.5 23.1875 C5.84 23.5175 5.18 23.8475 4.5 24.1875 C0.55846658 24.88120988 -2.99633464 25.18791022 -6.42578125 22.90625 C-9.28425585 19.90451056 -10.86884756 17.31273407 -11.0625 13.125 C-10.09151373 6.32809612 -7.66187906 -0.34478456 0 0 Z " transform="translate(183.5,1333.8125)" style="fill: #0A0A0A;"/><path d="M0 0 C0.78503906 0.02320313 1.57007813 0.04640625 2.37890625 0.0703125 C3.55259766 0.09738281 3.55259766 0.09738281 4.75 0.125 C5.47316406 0.14820313 6.19632813 0.17140625 6.94140625 0.1953125 C7.93140625 0.1953125 8.92140625 0.1953125 9.94140625 0.1953125 C12.27473958 0.1953125 14.60807292 0.1953125 16.94140625 0.1953125 C16.99944906 4.61192401 17.03501729 9.02843746 17.06640625 13.4453125 C17.08316406 14.69957031 17.09992188 15.95382812 17.1171875 17.24609375 C17.12363281 18.45136719 17.13007813 19.65664062 17.13671875 20.8984375 C17.14719238 22.00864258 17.15766602 23.11884766 17.16845703 24.26269531 C16.94247547 27.18150235 16.55178236 28.78009199 14.94140625 31.1953125 C9.96521084 34.67864929 4.8230575 35.08736294 -1.05859375 34.1953125 C-4.21884901 32.38945235 -5.6358134 31.36608886 -6.87109375 27.9453125 C-6.96390625 27.0790625 -6.96390625 27.0790625 -7.05859375 26.1953125 C-3.68359375 26.0703125 -3.68359375 26.0703125 -0.05859375 26.1953125 C0.60140625 26.8553125 1.26140625 27.5153125 1.94140625 28.1953125 C5.52484601 28.36208532 5.52484601 28.36208532 8.94140625 28.1953125 C8.94140625 26.5453125 8.94140625 24.8953125 8.94140625 23.1953125 C8.28140625 23.5253125 7.62140625 23.8553125 6.94140625 24.1953125 C3.86013429 24.67354528 1.01215288 24.77339779 -2.05859375 24.1953125 C-4.86096788 22.06235795 -6.48786052 19.33677896 -8.05859375 16.1953125 C-8.57056201 10.05169336 -8.06917604 7.14956122 -4.05859375 2.1953125 C-2.05859375 0.1953125 -2.05859375 0.1953125 0 0 Z " transform="translate(158.05859375,1046.8046875)" style="fill: #0A0A0A;"/><path d="M0 0 C0.99 0 1.98 0 3 0 C5.33333333 0 7.66666667 0 10 0 C10.05804281 4.41661151 10.09361104 8.83312496 10.125 13.25 C10.14175781 14.50425781 10.15851563 15.75851562 10.17578125 17.05078125 C10.18222656 18.25605469 10.18867187 19.46132813 10.1953125 20.703125 C10.20578613 21.81333008 10.21625977 22.92353516 10.22705078 24.06738281 C10.00106922 26.98618985 9.61037611 28.58477949 8 31 C3.02380459 34.48333679 -2.11834875 34.89205044 -8 34 C-11.16025526 32.19413985 -12.57721965 31.17077636 -13.8125 27.75 C-13.9053125 26.88375 -13.9053125 26.88375 -14 26 C-11.36 26 -8.72 26 -6 26 C-5.67 26.66 -5.34 27.32 -5 28 C-2.69 28 -0.38 28 2 28 C2 26.35 2 24.7 2 23 C1.34 23.33 0.68 23.66 0 24 C-3.08382979 24.47862977 -5.92001564 24.52572147 -9 24 C-12.77708979 21.22499526 -13.715557 19.72076263 -14.47265625 15.140625 C-14.69827283 10.4894525 -14.7641815 6.20368024 -12.0625 2.25 C-7.90524704 -0.8043083 -4.96621604 -0.50220162 0 0 Z " transform="translate(112,807)" style="fill: #080808;"/><path d="M0 0 C2.31 0 4.62 0 7 0 C7 11.22 7 22.44 7 34 C4 34 1 34 -2 34 C-2.72832031 34.05800781 -3.45664063 34.11601563 -4.20703125 34.17578125 C-11.29381767 34.5476516 -11.29381767 34.5476516 -15.0625 31.625 C-18.76471149 26.60910056 -18.50258001 22.1014977 -18 16 C-16.39701349 12.25969815 -15.40262302 11.26841535 -12 9 C-9.84375 8.734375 -9.84375 8.734375 -7.5 8.75 C-6.7265625 8.74484375 -5.953125 8.7396875 -5.15625 8.734375 C-3 9 -3 9 0 11 C0 7.37 0 3.74 0 0 Z " transform="translate(193,1383)" style="fill: #060606;"/><path d="M0 0 C2.31 0 4.62 0 7 0 C7 11.22 7 22.44 7 34 C4 34 1 34 -2 34 C-2.72832031 34.05800781 -3.45664063 34.11601563 -4.20703125 34.17578125 C-11.29381767 34.5476516 -11.29381767 34.5476516 -15.0625 31.625 C-18.76471149 26.60910056 -18.50258001 22.1014977 -18 16 C-16.39701349 12.25969815 -15.40262302 11.26841535 -12 9 C-9.84375 8.734375 -9.84375 8.734375 -7.5 8.75 C-6.7265625 8.74484375 -5.953125 8.7396875 -5.15625 8.734375 C-3 9 -3 9 0 11 C0 7.37 0 3.74 0 0 Z " transform="translate(193,1096)" style="fill: #060606;"/><path d="M0 0 C1.76923828 0.04060547 1.76923828 0.04060547 3.57421875 0.08203125 C4.47785156 0.11683594 5.38148438 0.15164063 6.3125 0.1875 C6.98510351 1.95608691 7.65038395 3.72746016 8.3125 5.5 C8.68375 6.48613281 9.055 7.47226563 9.4375 8.48828125 C10.3125 11.1875 10.3125 11.1875 10.3125 14.1875 C10.9725 14.1875 11.6325 14.1875 12.3125 14.1875 C12.43367188 13.51203125 12.55484375 12.8365625 12.6796875 12.140625 C12.84726562 11.24859375 13.01484375 10.3565625 13.1875 9.4375 C13.34992188 8.55578125 13.51234375 7.6740625 13.6796875 6.765625 C14.28046264 4.31802256 15.09247117 2.38150143 16.3125 0.1875 C18.6225 0.1875 20.9325 0.1875 23.3125 0.1875 C22.39341099 6.62052855 20.21986355 12.31879165 17.9375 18.375 C17.53789062 19.46748047 17.13828125 20.55996094 16.7265625 21.68554688 C16.3346875 22.73162109 15.9428125 23.77769531 15.5390625 24.85546875 C15.18408691 25.80703857 14.82911133 26.7586084 14.46337891 27.73901367 C13.32858908 30.1532706 12.40324648 31.55302046 10.3125 33.1875 C7.83203125 33.48046875 7.83203125 33.48046875 5.125 33.375 C4.22394531 33.34792969 3.32289063 33.32085938 2.39453125 33.29296875 C1.70746094 33.25816406 1.02039063 33.22335937 0.3125 33.1875 C0.3125 31.2075 0.3125 29.2275 0.3125 27.1875 C2.2925 26.8575 4.2725 26.5275 6.3125 26.1875 C5.7024268 21.61888367 4.49729121 17.66044276 2.8125 13.375 C2.3690625 12.23417969 1.925625 11.09335938 1.46875 9.91796875 C0.5700415 7.31990738 0.5700415 7.31990738 -0.6875 6.1875 C-3.3275 6.8475 -5.9675 7.5075 -8.6875 8.1875 C-9.0175 13.7975 -9.3475 19.4075 -9.6875 25.1875 C-11.9975 25.1875 -14.3075 25.1875 -16.6875 25.1875 C-16.6875 17.2675 -16.6875 9.3475 -16.6875 1.1875 C-14.7075 1.1875 -12.7275 1.1875 -10.6875 1.1875 C-10.3575 1.8475 -10.0275 2.5075 -9.6875 3.1875 C-9.15189453 2.45080078 -9.15189453 2.45080078 -8.60546875 1.69921875 C-5.78196905 -0.52622806 -3.53531046 -0.10500922 0 0 Z " transform="translate(308.6875,1046.8125)" style="fill: #0A0A0A;"/><path d="M0 0 C2.64 0 5.28 0 8 0 C8 4.29 8 8.58 8 13 C12.29 13 16.58 13 21 13 C21 8.71 21 4.42 21 0 C23.64 0 26.28 0 29 0 C29 11.22 29 22.44 29 34 C26.36 34 23.72 34 21 34 C21 29.38 21 24.76 21 20 C16.71 20 12.42 20 8 20 C8 24.62 8 29.24 8 34 C5.36 34 2.72 34 0 34 C0 22.78 0 11.56 0 0 Z " transform="translate(52,798)" style="fill: #060606;"/><path d="M0 0 C2.31 0 4.62 0 7 0 C10.44419134 9.41002278 10.44419134 9.41002278 10 14 C10.66 14 11.32 14 12 14 C12.12375 12.80375 12.2475 11.6075 12.375 10.375 C12.82325054 6.72403187 13.70446837 3.45475101 15 0 C17.31 0 19.62 0 22 0 C22.50757862 1.41396902 23.00574925 2.83131729 23.5 4.25 C23.7784375 5.03890625 24.056875 5.8278125 24.34375 6.640625 C25 9 25 9 25 13 C25.66 13 26.32 13 27 13 C27.13277344 12.22914063 27.26554687 11.45828125 27.40234375 10.6640625 C27.57894531 9.66117187 27.75554687 8.65828125 27.9375 7.625 C28.11152344 6.62726563 28.28554687 5.62953125 28.46484375 4.6015625 C29 2 29 2 30 0 C32.31 0 34.62 0 37 0 C36.38574623 5.7926463 34.84466956 10.94609066 32.9375 16.4375 C32.65583984 17.26443359 32.37417969 18.09136719 32.08398438 18.94335938 C31.39482208 20.96412338 30.6981769 22.98233282 30 25 C27.36 25 24.72 25 22 25 C21.01 21.04 20.02 17.08 19 13 C18.67 13 18.34 13 18 13 C17.01 16.96 16.02 20.92 15 25 C12.36 25 9.72 25 7 25 C6.30963522 22.92890566 5.6200161 20.85756057 4.93359375 18.78515625 C4.27139508 16.80964307 3.59550113 14.83869681 2.91015625 12.87109375 C2.54792969 11.82050781 2.18570313 10.76992188 1.8125 9.6875 C1.46832031 8.70136719 1.12414062 7.71523438 0.76953125 6.69921875 C0 4 0 4 0 0 Z " transform="translate(111,413)" style="fill: #0B0B0B;"/><path d="M0 0 C4.09105489 2.60339857 6.38124373 4.15205616 7.5 9 C7.62375 10.36125 7.62375 10.36125 7.75 11.75 C5.11 11.75 2.47 11.75 -0.25 11.75 C-0.53875 11.110625 -0.8275 10.47125 -1.125 9.8125 C-2.07823451 7.59793921 -2.07823451 7.59793921 -4.25 6.75 C-7.16538029 6.24957854 -7.16538029 6.24957854 -10.25 6.75 C-13.02413573 8.94010715 -14.070636 10.6335506 -14.6328125 14.1328125 C-14.82193151 18.35647046 -14.59544526 21.08568219 -12.625 24.875 C-10.3418101 26.98920202 -10.3418101 26.98920202 -7.1875 27.25 C-4.28455665 26.97869141 -4.28455665 26.97869141 -2.4375 25.4375 C-1.05544154 23.64523775 -1.05544154 23.64523775 -0.25 20.75 C2.39 20.75 5.03 20.75 7.75 20.75 C7.36124961 26.19250545 5.58447004 28.91552996 1.75 32.75 C-2.3080002 35.16286498 -6.63120292 35.32280357 -11.25 34.75 C-16.51594344 32.89143173 -19.04395768 30.14685804 -22.25 25.75 C-24.33582943 19.49251171 -24.3846802 12.14543597 -21.5625 6.1875 C-15.26494945 -0.45045868 -8.90874489 -3.42644034 0 0 Z " transform="translate(89.25,1325.25)" style="fill: #0B0B0B;"/><path d="M0 0 C3.26269829 1.29148474 4.5619688 2.48644618 6.8125 5.125 C8.47940009 9.16065285 8.69730573 12.69489505 8 17 C5.9949912 20.8026029 4.57313738 22.61790841 1 25 C-4.65064725 25.76468873 -9.44694392 26.1492615 -14.125 22.6875 C-17.81391753 17.40005154 -18.90662426 14.40098575 -18 8 C-13.62598979 -0.2955366 -8.71815225 -0.81812572 0 0 Z " transform="translate(280,1047)" style="fill: #0D0D0D;"/><path d="M0 0 C3.26269829 1.29148474 4.5619688 2.48644618 6.8125 5.125 C8.47940009 9.16065285 8.69730573 12.69489505 8 17 C5.9949912 20.8026029 4.57313738 22.61790841 1 25 C-4.61909022 25.76041819 -9.43259154 26.12853409 -14.125 22.75 C-14.74375 21.8425 -15.3625 20.935 -16 20 C-16.433125 19.38125 -16.86625 18.7625 -17.3125 18.125 C-18.74363639 13.70148751 -18.40255104 10.0466327 -16.75 5.75 C-12.48649524 -0.94979319 -7.39233619 -0.8018433 0 0 Z " transform="translate(101,413)" style="fill: #0A0A0A;"/><path d="M0 0 C3.29700178 1.30506321 4.57462346 2.48661452 6.8125 5.1875 C8.94030253 10.22703232 8.62729013 14.33768116 6.75 19.3125 C4.95565776 22.06809701 3.78905262 23.3188612 1 25 C-3.05484817 25.66930094 -6.93692998 25.60028942 -11 25 C-14.125 22.75 -14.125 22.75 -16 20 C-16.433125 19.38125 -16.86625 18.7625 -17.3125 18.125 C-18.74363639 13.70148751 -18.40255104 10.0466327 -16.75 5.75 C-12.48649524 -0.94979319 -7.39233619 -0.8018433 0 0 Z " transform="translate(118,1334)" style="fill: #0A0A0A;"/><path d="M0 0 C3.66005104 1.37251914 4.66847227 2.49699241 6.8125 5.75 C8.38182536 10.04499571 8.99735783 13.58482956 7.203125 17.9296875 C5.46975181 21.14309471 4.06046941 22.95968706 1 25 C-4.61909022 25.76041819 -9.43259154 26.12853409 -14.125 22.75 C-14.74375 21.8425 -15.3625 20.935 -16 20 C-16.433125 19.401875 -16.86625 18.80375 -17.3125 18.1875 C-18.38795078 14.76561115 -18.5609599 11.51444755 -18 8 C-13.55277518 -0.28103933 -8.75939255 -0.8091521 0 0 Z " transform="translate(303,1334)" style="fill: #0C0C0C;"/><path d="M0 0 C2.82421875 1.359375 2.82421875 1.359375 5 4 C5.7525433 7.57933639 5.79063889 11.10162441 5.8125 14.75 C5.83763672 15.73355469 5.86277344 16.71710938 5.88867188 17.73046875 C5.94749661 20.15404766 5.98380919 22.57582278 6 25 C2.66666667 25 -0.66666667 25 -4 25 C-4.82371094 25.03480469 -5.64742187 25.06960938 -6.49609375 25.10546875 C-7.95208984 25.14607422 -7.95208984 25.14607422 -9.4375 25.1875 C-10.40558594 25.22230469 -11.37367188 25.25710938 -12.37109375 25.29296875 C-15 25 -15 25 -16.8125 23.734375 C-18.50372373 21.26429824 -18.5968545 18.87505866 -18.47265625 15.9375 C-18 14 -18 14 -15.5 11.5625 C-11.4536477 9.75609272 -8.39794791 9.30330675 -4 9 C-3.67 7.68 -3.34 6.36 -3 5 C-5.97065509 5.34227572 -5.97065509 5.34227572 -9 6 C-9.33 6.66 -9.66 7.32 -10 8 C-12.64 8 -15.28 8 -18 8 C-17.70327903 5.23060425 -16.9500454 3.9379874 -15.1875 1.75 C-10.37502668 -0.89214221 -5.37108126 -0.97136576 0 0 Z " transform="translate(237,1047)" style="fill: #090909;"/><path d="M0 0 C1.68609375 -0.02900391 1.68609375 -0.02900391 3.40625 -0.05859375 C6.5 0.4375 6.5 0.4375 8.890625 1.79296875 C11.47762945 6.04394451 10.91841717 10.32283473 10.75 15.1875 C10.73195313 16.17105469 10.71390625 17.15460938 10.6953125 18.16796875 C10.64824126 20.59213783 10.58250742 23.01432059 10.5 25.4375 C7.5 25.4375 4.5 25.4375 1.5 25.4375 C0.67628906 25.47230469 -0.14742187 25.50710938 -0.99609375 25.54296875 C-2.45208984 25.58357422 -2.45208984 25.58357422 -3.9375 25.625 C-4.90558594 25.65980469 -5.87367188 25.69460938 -6.87109375 25.73046875 C-9.5 25.4375 -9.5 25.4375 -11.3125 24.171875 C-13.00372373 21.70179824 -13.0968545 19.31255866 -12.97265625 16.375 C-12.5 14.4375 -12.5 14.4375 -10 12 C-5.9536477 10.19359272 -2.89794791 9.74080675 1.5 9.4375 C1.83 8.1175 2.16 6.7975 2.5 5.4375 C-0.47065509 5.77977572 -0.47065509 5.77977572 -3.5 6.4375 C-3.83 7.0975 -4.16 7.7575 -4.5 8.4375 C-6.81 8.4375 -9.12 8.4375 -11.5 8.4375 C-11.18624876 5.53530106 -10.95747129 3.89497129 -8.859375 1.796875 C-5.77724055 0.02107568 -3.5418758 0.00406178 0 0 Z " transform="translate(254.5,1333.5625)" style="fill: #080808;"/><path d="M0 0 C3.3274035 2.44462298 5.68488193 5.05464578 7 9 C7 10.98 7 12.96 7 15 C1.39 15 -4.22 15 -10 15 C-9.34 16.32 -8.68 17.64 -8 19 C-5.69 19 -3.38 19 -1 19 C-1 18.34 -1 17.68 -1 17 C1.31 17 3.62 17 6 17 C4.71915974 20.94925745 3.56995402 22.85432815 0 25 C-5.03894868 25.83356677 -9.56049632 25.79319591 -14.0625 23.3125 C-17.5709777 19.12496211 -18.45957141 15.5039058 -18.32421875 9.99609375 C-17.78380244 6.66895238 -16.11883057 4.54259669 -14 2 C-9.54906717 -0.96728856 -5.21812008 -0.75636001 0 0 Z " transform="translate(141,1047)" style="fill: #0D0D0D;"/><path d="M0 0 C3.50252011 2.04313673 5.77361702 4.09787233 7 8 C7 10.31 7 12.62 7 15 C1.39 15 -4.22 15 -10 15 C-9.34 16.32 -8.68 17.64 -8 19 C-5.08347826 19.16681109 -5.08347826 19.16681109 -2 19 C-1.34 18.34 -0.68 17.68 0 17 C3.125 16.875 3.125 16.875 6 17 C5.68369942 19.92578037 5.46559064 21.54526229 3.32421875 23.63671875 C-1.07725701 26.2184247 -6.07547944 25.72756255 -11 25 C-14.125 22.75 -14.125 22.75 -16 20 C-16.433125 19.38125 -16.86625 18.7625 -17.3125 18.125 C-18.35640137 14.89839575 -18.34887144 12.37242397 -18 9 C-13.63299327 0.88984465 -8.95224167 -1.32034683 0 0 Z " transform="translate(362,807)" style="fill: #0D0D0D;"/><path d="M0 0 C4.20475482 1.6997945 6.20472472 3.8425204 8 8 C8 10.31 8 12.62 8 15 C2.39 15 -3.22 15 -9 15 C-8.34 16.32 -7.68 17.64 -7 19 C-2.65815798 18.81535634 -2.65815798 18.81535634 1 17 C2.99958364 16.95919217 5.00045254 16.95745644 7 17 C5.71915974 20.94925745 4.56995402 22.85432815 1 25 C-4.03894868 25.83356677 -8.56049632 25.79319591 -13.0625 23.3125 C-16.60852479 19.08014783 -17.40679611 15.33808234 -17.25390625 9.92578125 C-16.75717731 6.1582833 -14.96235232 3.86215077 -12.19921875 1.38671875 C-8.37855519 -1.02240304 -4.36580326 -0.51737604 0 0 Z " transform="translate(220,1392)" style="fill: #0D0D0C;"/><path d="M0 0 C4.20475482 1.6997945 6.20472472 3.8425204 8 8 C8 10.31 8 12.62 8 15 C2.39 15 -3.22 15 -9 15 C-8.34 16.32 -7.68 17.64 -7 19 C-2.65815798 18.81535634 -2.65815798 18.81535634 1 17 C2.99958364 16.95919217 5.00045254 16.95745644 7 17 C5.71915974 20.94925745 4.56995402 22.85432815 1 25 C-4.03894868 25.83356677 -8.56049632 25.79319591 -13.0625 23.3125 C-16.60852479 19.08014783 -17.40679611 15.33808234 -17.25390625 9.92578125 C-16.75717731 6.1582833 -14.96235232 3.86215077 -12.19921875 1.38671875 C-8.37855519 -1.02240304 -4.36580326 -0.51737604 0 0 Z " transform="translate(128,1392)" style="fill: #0D0C0C;"/><path d="M0 0 C4.20475482 1.6997945 6.20472472 3.8425204 8 8 C8 10.31 8 12.62 8 15 C2.39 15 -3.22 15 -9 15 C-8.34 16.32 -7.68 17.64 -7 19 C-2.65815798 18.81535634 -2.65815798 18.81535634 1 17 C2.99958364 16.95919217 5.00045254 16.95745644 7 17 C5.71915974 20.94925745 4.56995402 22.85432815 1 25 C-4.03894868 25.83356677 -8.56049632 25.79319591 -13.0625 23.3125 C-16.60852479 19.08014783 -17.40679611 15.33808234 -17.25390625 9.92578125 C-16.75717731 6.1582833 -14.96235232 3.86215077 -12.19921875 1.38671875 C-8.37855519 -1.02240304 -4.36580326 -0.51737604 0 0 Z " transform="translate(220,1105)" style="fill: #0D0D0C;"/><path d="M0 0 C4.20475482 1.6997945 6.20472472 3.8425204 8 8 C8 10.31 8 12.62 8 15 C2.39 15 -3.22 15 -9 15 C-8.34 16.32 -7.68 17.64 -7 19 C-2.65815798 18.81535634 -2.65815798 18.81535634 1 17 C2.99958364 16.95919217 5.00045254 16.95745644 7 17 C5.71915974 20.94925745 4.56995402 22.85432815 1 25 C-4.03894868 25.83356677 -8.56049632 25.79319591 -13.0625 23.3125 C-16.60852479 19.08014783 -17.40679611 15.33808234 -17.25390625 9.92578125 C-16.75717731 6.1582833 -14.96235232 3.86215077 -12.19921875 1.38671875 C-8.37855519 -1.02240304 -4.36580326 -0.51737604 0 0 Z " transform="translate(128,1105)" style="fill: #0D0C0C;"/><path d="M0 0 C3.99928084 1.44654839 4.78482078 2.59932145 6.8125 6.375 C8 10 8 10 8 15 C2.39 15 -3.22 15 -9 15 C-8.34 16.32 -7.68 17.64 -7 19 C-2.65815798 18.81535634 -2.65815798 18.81535634 1 17 C2.99958364 16.95919217 5.00045254 16.95745644 7 17 C5.71915974 20.94925745 4.56995402 22.85432815 1 25 C-4.03894868 25.83356677 -8.56049632 25.79319591 -13.0625 23.3125 C-16.60852479 19.08014783 -17.40679611 15.33808234 -17.25390625 9.92578125 C-16.75717731 6.1582833 -14.96235232 3.86215077 -12.19921875 1.38671875 C-8.37185412 -1.0266284 -4.37232322 -0.50395284 0 0 Z " transform="translate(276,413)" style="fill: #0C0C0C;"/><path d="M0 0 C2.31 0 4.62 0 7 0 C7.33 3.3 7.66 6.6 8 10 C8.66 9.67 9.32 9.34 10 9 C12.0234375 8.7265625 12.0234375 8.7265625 14.375 8.625 C15.53128906 8.55152344 15.53128906 8.55152344 16.7109375 8.4765625 C19 9 19 9 21.2734375 10.87890625 C23.758319 15.37080742 23.43518418 19.27335345 23.25 24.3125 C23.23195312 25.24384766 23.21390625 26.17519531 23.1953125 27.13476562 C23.14834888 29.42424197 23.08269475 31.71158184 23 34 C20.69 34 18.38 34 16 34 C15.93941406 32.78441406 15.87882813 31.56882812 15.81640625 30.31640625 C15.73201668 28.73175772 15.6473679 27.14712298 15.5625 25.5625 C15.52318359 24.76005859 15.48386719 23.95761719 15.44335938 23.13085938 C15.5945704 19.24760439 15.5945704 19.24760439 14 16 C11.5 15.83333333 11.5 15.83333333 9 16 C6.88074396 18.11925604 7.58168983 22.6196093 7.4375 25.5625 C7.39431641 26.36880859 7.35113281 27.17511719 7.30664062 28.00585938 C7.20024738 30.00368805 7.09959112 32.0018207 7 34 C4.69 34 2.38 34 0 34 C0 22.78 0 11.56 0 0 Z " transform="translate(127,798)" style="fill: #040404;"/><path d="M0 0 C3.12291165 1.68012647 5.39164837 3.78329674 7 7 C7 9.31 7 11.62 7 14 C1.39 14 -4.22 14 -10 14 C-9.01 15.65 -8.02 17.3 -7 19 C-4.45709375 19.58350505 -4.45709375 19.58350505 -2 19 C-1.34 18.34 -0.68 17.68 0 17 C3.625 16.875 3.625 16.875 7 17 C5.71855277 20.95112895 4.5657383 22.84698501 1 25 C-3.36196782 25.79068903 -7.98781019 26.01779368 -12.015625 23.98046875 C-14.64682258 21.86656972 -15.92995466 20.21013603 -17 17 C-17.50379515 12.12722723 -17.76454531 8.26545431 -15.1875 4 C-10.32059868 -0.44973835 -6.39705388 -1.00326466 0 0 Z " transform="translate(302,1392)" style="fill: #060606;"/><path d="M0 0 C2.98990788 1.24579495 4.39265669 2.19020892 6.3125 4.75 C7 7 7 7 7 14 C1.39 14 -4.22 14 -10 14 C-9.01 15.65 -8.02 17.3 -7 19 C-3.37400578 19.41725678 -3.37400578 19.41725678 0 19 C0 18.34 0 17.68 0 17 C2.31 17 4.62 17 7 17 C5.71915974 20.94925745 4.56995402 22.85432815 1 25 C-4.09070736 25.84212894 -8.5868961 25.8363268 -13.0625 23.1875 C-16.94168586 18.80777402 -17.43165092 16.17256776 -17.32421875 10.51171875 C-16.85460367 6.87361641 -15.38664016 4.72758876 -13 2 C-8.74557709 -0.83628194 -4.99310819 -0.51845373 0 0 Z " transform="translate(163,1334)" style="fill: #060606;"/><path d="M0 0 C3.12291165 1.68012647 5.39164837 3.78329674 7 7 C7 9.31 7 11.62 7 14 C1.39 14 -4.22 14 -10 14 C-9.01 15.65 -8.02 17.3 -7 19 C-4.45709375 19.58350505 -4.45709375 19.58350505 -2 19 C-1.34 18.34 -0.68 17.68 0 17 C3.625 16.875 3.625 16.875 7 17 C5.71855277 20.95112895 4.5657383 22.84698501 1 25 C-3.36196782 25.79068903 -7.98781019 26.01779368 -12.015625 23.98046875 C-14.64682258 21.86656972 -15.92995466 20.21013603 -17 17 C-17.50379515 12.12722723 -17.76454531 8.26545431 -15.1875 4 C-10.32059868 -0.44973835 -6.39705388 -1.00326466 0 0 Z " transform="translate(302,1105)" style="fill: #060606;"/><path d="M0 0 C3.12291165 1.68012647 5.39164837 3.78329674 7 7 C7 9.31 7 11.62 7 14 C1.39 14 -4.22 14 -10 14 C-9.01 15.65 -8.02 17.3 -7 19 C-4.45709375 19.58350505 -4.45709375 19.58350505 -2 19 C-1.34 18.34 -0.68 17.68 0 17 C3.625 16.875 3.625 16.875 7 17 C5.71855277 20.95112895 4.5657383 22.84698501 1 25 C-3.36196782 25.79068903 -7.98781019 26.01779368 -12.015625 23.98046875 C-14.64682258 21.86656972 -15.92995466 20.21013603 -17 17 C-17.50379515 12.12722723 -17.76454531 8.26545431 -15.1875 4 C-10.32059868 -0.44973835 -6.39705388 -1.00326466 0 0 Z " transform="translate(280,807)" style="fill: #060606;"/><path d="M0 0 C3.12291165 1.68012647 5.39164837 3.78329674 7 7 C7 9.31 7 11.62 7 14 C1.39 14 -4.22 14 -10 14 C-9.67 15.65 -9.34 17.3 -9 19 C-5.58343976 19.16677282 -5.58343976 19.16677282 -2 19 C-1.34 18.34 -0.68 17.68 0 17 C3.625 16.875 3.625 16.875 7 17 C5.71855277 20.95112895 4.5657383 22.84698501 1 25 C-3.36445818 25.79114046 -8.009095 26.04175261 -12.015625 23.9453125 C-14.14983223 22.19443375 -15.76131153 20.47737694 -17 18 C-17.50536707 12.85519754 -17.86469264 8.46103239 -15.1875 3.9375 C-10.2676298 -0.42009932 -6.3938633 -1.00276428 0 0 Z " transform="translate(358,413)" style="fill: #060606;"/><path d="M0 0 C2.64 0 5.28 0 8 0 C8.33 5.94 8.66 11.88 9 18 C10.65 18.33 12.3 18.66 14 19 C15.51421001 17.48578999 15.21309856 16.07527232 15.31640625 13.96484375 C15.35830078 13.15595703 15.40019531 12.34707031 15.44335938 11.51367188 C15.50233398 10.2384668 15.50233398 10.2384668 15.5625 8.9375 C15.60568359 8.08349609 15.64886719 7.22949219 15.69335938 6.34960938 C15.79976702 4.23327963 15.90041731 2.11666187 16 0 C18.64 0 21.28 0 24 0 C24 8.25 24 16.5 24 25 C20.66666667 25 17.33333333 25 14 25 C13.22785156 25.05800781 12.45570313 25.11601562 11.66015625 25.17578125 C10.80292969 25.22089844 9.94570312 25.26601563 9.0625 25.3125 C7.78052734 25.39951172 7.78052734 25.39951172 6.47265625 25.48828125 C4 25 4 25 1.69921875 23.125 C-0.74598258 18.62807802 -0.43474909 14.71480694 -0.25 9.6875 C-0.23195312 8.75615234 -0.21390625 7.82480469 -0.1953125 6.86523438 C-0.14834888 4.57575803 -0.08269475 2.28841816 0 0 Z " transform="translate(232,413)" style="fill: #151515;"/><path d="M0 0 C2.64 0 5.28 0 8 0 C8.33 5.94 8.66 11.88 9 18 C10.65 18.33 12.3 18.66 14 19 C16.48044315 15.27933528 16.44381173 12.13459526 16.625 7.8125 C16.66367188 7.06291016 16.70234375 6.31332031 16.7421875 5.54101562 C16.83628216 3.69440801 16.91922319 1.8472381 17 0 C19.31 0 21.62 0 24 0 C24 8.25 24 16.5 24 25 C20.66666667 25 17.33333333 25 14 25 C12.88625 25.226875 11.7725 25.45375 10.625 25.6875 C7 26 7 26 4.1875 24.9375 C1.03182165 22.14247061 0.15895185 19.11398526 -0.15649414 14.91870117 C-0.19609186 12.65067326 -0.17496789 10.39277326 -0.125 8.125 C-0.11597656 7.34125 -0.10695312 6.5575 -0.09765625 5.75 C-0.07428063 3.83319945 -0.03841653 1.91655809 0 0 Z " transform="translate(202,1334)" style="fill: #0F0F0F;"/><path d="M0 0 C2.31 0 4.62 0 7 0 C7.33 5.94 7.66 11.88 8 18 C9.65 18.33 11.3 18.66 13 19 C15.48044315 15.27933528 15.44381173 12.13459526 15.625 7.8125 C15.68300781 6.68811523 15.68300781 6.68811523 15.7421875 5.54101562 C15.83628216 3.69440801 15.91922319 1.8472381 16 0 C18.31 0 20.62 0 23 0 C23 8.25 23 16.5 23 25 C19.66666667 25 16.33333333 25 13 25 C11.88625 25.226875 10.7725 25.45375 9.625 25.6875 C5.5247419 26.04097053 4.16979264 25.51718827 1 23 C-0.2263757 20.54724859 -0.11415314 18.9494219 -0.09765625 16.2109375 C-0.09443359 15.26992187 -0.09121094 14.32890625 -0.08789062 13.359375 C-0.07951172 12.37453125 -0.07113281 11.3896875 -0.0625 10.375 C-0.05798828 9.38242188 -0.05347656 8.38984375 -0.04882812 7.3671875 C-0.03702145 4.9113984 -0.020554 2.45572896 0 0 Z " transform="translate(180,1047)" style="fill: #070707;"/><path d="M0 0 C3.33333333 0 6.66666667 0 10 0 C11.04994141 -0.06960938 11.04994141 -0.06960938 12.12109375 -0.140625 C13.26771484 -0.19476563 13.26771484 -0.19476563 14.4375 -0.25 C15.19933594 -0.29640625 15.96117187 -0.3428125 16.74609375 -0.390625 C19 0 19 0 21.26953125 1.34375 C24.02533538 5.57387823 23.42049891 9.82520462 23.25 14.75 C23.23195313 15.73355469 23.21390625 16.71710938 23.1953125 17.73046875 C23.14824126 20.15463783 23.08250742 22.57682059 23 25 C20.69 25 18.38 25 16 25 C15.67 19.06 15.34 13.12 15 7 C13.02 7 11.04 7 9 7 C7.414131 10.171738 7.62133555 13.63513822 7.4375 17.125 C7.39431641 17.87910156 7.35113281 18.63320313 7.30664062 19.41015625 C7.2005168 21.27321888 7.09974999 23.13658524 7 25 C4.69 25 2.38 25 0 25 C0 16.75 0 8.5 0 0 Z " transform="translate(287,413)" style="fill: #080808;"/><path d="M0 0 C2.31 0 4.62 0 7 0 C7 0.66 7 1.32 7 2 C7.99 1.34 8.98 0.68 10 0 C12.12109375 -0.3359375 12.12109375 -0.3359375 14.4375 -0.375 C15.19933594 -0.40335938 15.96117187 -0.43171875 16.74609375 -0.4609375 C19 0 19 0 21.26953125 1.3515625 C24.02899955 5.5748571 23.42034845 9.82955065 23.25 14.75 C23.23195312 15.73355469 23.21390625 16.71710938 23.1953125 17.73046875 C23.14824126 20.15463783 23.08250742 22.57682059 23 25 C20.69 25 18.38 25 16 25 C15.67 19.06 15.34 13.12 15 7 C13.02 7 11.04 7 9 7 C7.414131 10.171738 7.62133555 13.63513822 7.4375 17.125 C7.39431641 17.87910156 7.35113281 18.63320312 7.30664062 19.41015625 C7.2005168 21.27321888 7.09974999 23.13658524 7 25 C4.69 25 2.38 25 0 25 C0 16.75 0 8.5 0 0 Z " transform="translate(231,1392)" style="fill: #090909;"/><path d="M0 0 C2.31 0 4.62 0 7 0 C7 0.66 7 1.32 7 2 C7.99 1.34 8.98 0.68 10 0 C12.12109375 -0.3359375 12.12109375 -0.3359375 14.4375 -0.375 C15.19933594 -0.40335938 15.96117187 -0.43171875 16.74609375 -0.4609375 C19 0 19 0 21.26953125 1.3515625 C24.02899955 5.5748571 23.42034845 9.82955065 23.25 14.75 C23.23195312 15.73355469 23.21390625 16.71710938 23.1953125 17.73046875 C23.14824126 20.15463783 23.08250742 22.57682059 23 25 C20.69 25 18.38 25 16 25 C15.67 19.06 15.34 13.12 15 7 C13.02 7 11.04 7 9 7 C7.414131 10.171738 7.62133555 13.63513822 7.4375 17.125 C7.39431641 17.87910156 7.35113281 18.63320312 7.30664062 19.41015625 C7.2005168 21.27321888 7.09974999 23.13658524 7 25 C4.69 25 2.38 25 0 25 C0 16.75 0 8.5 0 0 Z " transform="translate(231,1105)" style="fill: #090909;"/><path d="M0 0 C3 0 6 0 9 0 C9.73992187 -0.05800781 10.47984375 -0.11601563 11.2421875 -0.17578125 C12.11101562 -0.22089844 12.97984375 -0.26601563 13.875 -0.3125 C14.73867187 -0.37050781 15.60234375 -0.42851563 16.4921875 -0.48828125 C19 0 19 0 21.3046875 1.875 C23.74444326 6.37224564 23.43467802 10.28712692 23.25 15.3125 C23.23195312 16.24384766 23.21390625 17.17519531 23.1953125 18.13476562 C23.14834888 20.42424197 23.08269475 22.71158184 23 25 C20.69 25 18.38 25 16 25 C15.93941406 23.78441406 15.87882813 22.56882812 15.81640625 21.31640625 C15.73201668 19.73175772 15.6473679 18.14712298 15.5625 16.5625 C15.52318359 15.76005859 15.48386719 14.95761719 15.44335938 14.13085938 C15.5945704 10.24760439 15.5945704 10.24760439 14 7 C11.5 6.83333333 11.5 6.83333333 9 7 C6.88074396 9.11925604 7.58168983 13.6196093 7.4375 16.5625 C7.39431641 17.36880859 7.35113281 18.17511719 7.30664062 19.00585938 C7.20024738 21.00368805 7.09959112 23.0018207 7 25 C4.69 25 2.38 25 0 25 C0 16.75 0 8.5 0 0 Z " transform="translate(180,807)" style="fill: #070707;"/><path d="M0 0 C3.33333333 0 6.66666667 0 10 0 C11.04994141 -0.06960938 11.04994141 -0.06960938 12.12109375 -0.140625 C13.26771484 -0.19476563 13.26771484 -0.19476563 14.4375 -0.25 C15.19933594 -0.29640625 15.96117187 -0.3428125 16.74609375 -0.390625 C19 0 19 0 21.26953125 1.34375 C24.02533538 5.57387823 23.42049891 9.82520462 23.25 14.75 C23.23195312 15.73355469 23.21390625 16.71710938 23.1953125 17.73046875 C23.14824126 20.15463783 23.08250742 22.57682059 23 25 C20.69 25 18.38 25 16 25 C15.67 19.06 15.34 13.12 15 7 C13.02 7 11.04 7 9 7 C7.414131 10.171738 7.62133555 13.63513822 7.4375 17.125 C7.39431641 17.87910156 7.35113281 18.63320313 7.30664062 19.41015625 C7.2005168 21.27321888 7.09974999 23.13658524 7 25 C4.69 25 2.38 25 0 25 C0 16.75 0 8.5 0 0 Z " transform="translate(176,413)" style="fill: #040404;"/><path d="M0 0 C3.33333333 0 6.66666667 0 10 0 C11.04994141 -0.08701172 11.04994141 -0.08701172 12.12109375 -0.17578125 C12.88550781 -0.22089844 13.64992188 -0.26601563 14.4375 -0.3125 C15.19933594 -0.37050781 15.96117187 -0.42851563 16.74609375 -0.48828125 C19 0 19 0 21.26953125 1.875 C23.75825643 6.36931184 23.43532167 10.26961213 23.25 15.3125 C23.23195313 16.24384766 23.21390625 17.17519531 23.1953125 18.13476562 C23.14834888 20.42424197 23.08269475 22.71158184 23 25 C20.69 25 18.38 25 16 25 C15.67 18.73 15.34 12.46 15 6 C12.69 6.66 10.38 7.32 8 8 C7.67 13.61 7.34 19.22 7 25 C4.69 25 2.38 25 0 25 C0 16.75 0 8.5 0 0 Z " transform="translate(291,807)" style="fill: #040404;"/><path d="M0 0 C2.31 0 4.62 0 7 0 C7.06058594 1.20398438 7.12117187 2.40796875 7.18359375 3.6484375 C7.26799732 5.22397077 7.35264541 6.79949096 7.4375 8.375 C7.47681641 9.1690625 7.51613281 9.963125 7.55664062 10.78125 C7.68893404 15.02601221 7.68893404 15.02601221 9 19 C10.98 19 12.96 19 15 19 C15.33 12.73 15.66 6.46 16 0 C18.31 0 20.62 0 23 0 C23 8.25 23 16.5 23 25 C18.42125 25.1546875 18.42125 25.1546875 13.75 25.3125 C12.79448242 25.35802002 11.83896484 25.40354004 10.85449219 25.45043945 C6.88502791 25.51553329 4.6868451 25.49651453 1.40625 23.125 C-0.627392 18.60579556 -0.42974269 14.57857508 -0.25 9.6875 C-0.23195312 8.75615234 -0.21390625 7.82480469 -0.1953125 6.86523438 C-0.14834888 4.57575803 -0.08269475 2.28841816 0 0 Z " transform="translate(236,807)" style="fill: #070707;"/><path d="M0 0 C2.64 0 5.28 0 8 0 C8 8.91 8 17.82 8 27 C13.28 27 18.56 27 24 27 C24 29.31 24 31.62 24 34 C16.08 34 8.16 34 0 34 C0 22.78 0 11.56 0 0 Z " transform="translate(57,404)" style="fill: #050505;"/><path d="M0 0 C2.83852708 1.362493 3.91054681 2.51524485 6 5 C6 6.32 6 7.64 6 9 C2.625 9.1875 2.625 9.1875 -1 9 C-1.66 8.01 -2.32 7.02 -3 6 C-6.29075996 6.37904208 -6.29075996 6.37904208 -9 8 C-9.09823996 9.47648876 -9.12973519 10.95775417 -9.125 12.4375 C-9.12757813 13.24058594 -9.13015625 14.04367187 -9.1328125 14.87109375 C-9.13578326 17.05397931 -9.13578326 17.05397931 -8 19 C-5.62625139 19.33425735 -5.62625139 19.33425735 -3 19 C-2.54625 18.34 -2.0925 17.68 -1.625 17 C-1.08875 16.34 -0.5525 15.68 0 15 C3.6875 14.75 3.6875 14.75 7 15 C6.16017873 18.35928507 5.26227877 20.678497 3.0625 23.375 C-1.54967171 25.82227479 -5.89159574 25.90645369 -11 25 C-14.22344672 22.5659688 -15.7746971 20.33795435 -18 17 C-18.46021936 11.3853238 -18.15793998 7.84969354 -15 3 C-10.54146229 -1.11481784 -5.77582114 -0.90012797 0 0 Z " transform="translate(276,1392)" style="fill: #0A0A0A;"/><path d="M0 0 C2.83852708 1.362493 3.91054681 2.51524485 6 5 C6 6.32 6 7.64 6 9 C2.625 9.1875 2.625 9.1875 -1 9 C-1.66 8.01 -2.32 7.02 -3 6 C-6.29075996 6.37904208 -6.29075996 6.37904208 -9 8 C-9.09823996 9.47648876 -9.12973519 10.95775417 -9.125 12.4375 C-9.12757813 13.24058594 -9.13015625 14.04367187 -9.1328125 14.87109375 C-9.13578326 17.05397931 -9.13578326 17.05397931 -8 19 C-5.62625139 19.33425735 -5.62625139 19.33425735 -3 19 C-2.54625 18.34 -2.0925 17.68 -1.625 17 C-1.08875 16.34 -0.5525 15.68 0 15 C3.6875 14.75 3.6875 14.75 7 15 C6.16017873 18.35928507 5.26227877 20.678497 3.0625 23.375 C-1.54967171 25.82227479 -5.89159574 25.90645369 -11 25 C-14.22344672 22.5659688 -15.7746971 20.33795435 -18 17 C-18.46021936 11.3853238 -18.15793998 7.84969354 -15 3 C-10.54146229 -1.11481784 -5.77582114 -0.90012797 0 0 Z " transform="translate(276,1105)" style="fill: #0A0A0A;"/><path d="M0 0 C2.83852708 1.362493 3.91054681 2.51524485 6 5 C6 6.32 6 7.64 6 9 C2.625 9.1875 2.625 9.1875 -1 9 C-1.66 8.01 -2.32 7.02 -3 6 C-6.29075996 6.37904208 -6.29075996 6.37904208 -9 8 C-9.09823996 9.47648876 -9.12973519 10.95775417 -9.125 12.4375 C-9.12757813 13.24058594 -9.13015625 14.04367187 -9.1328125 14.87109375 C-9.13578326 17.05397931 -9.13578326 17.05397931 -8 19 C-6.35 19 -4.7 19 -3 19 C-2.34 17.68 -1.68 16.36 -1 15 C1.64 15 4.28 15 7 15 C6.16017873 18.35928507 5.26227877 20.678497 3.0625 23.375 C-1.55337104 25.82423769 -5.88774467 25.89944943 -11 25 C-14.31876697 22.56172222 -16.72257934 19.94839113 -18 16 C-18.48459952 10.76632514 -17.82735806 7.44299123 -15 3 C-10.54773566 -1.11883485 -5.7715869 -0.89946809 0 0 Z " transform="translate(332,413)" style="fill: #0A0A0A;"/><path d="M0 0 C3.125 1.6875 3.125 1.6875 5 4 C5.8125 6.75 5.8125 6.75 6 9 C2.625 9.1875 2.625 9.1875 -1 9 C-1.66 8.01 -2.32 7.02 -3 6 C-5.97065509 6.34227572 -5.97065509 6.34227572 -9 7 C-10.50934217 10.01868434 -10.17510672 12.67297229 -10 16 C-9.34 16.99 -8.68 17.98 -8 19 C-5.41619823 19.25030977 -5.41619823 19.25030977 -3 19 C-2.34 17.68 -1.68 16.36 -1 15 C1.31 15 3.62 15 6 15 C5.75784048 18.55167293 5.35252176 20.55347244 3.125 23.375 C-1.53450378 25.79794196 -5.85293545 25.77399467 -11 25 C-14.53214485 22.98163151 -16.80160052 20.92203467 -18 17 C-18.45384141 11.37236648 -18.16579197 7.86175195 -15 3 C-10.54090335 -1.1342618 -5.77975907 -0.77063454 0 0 Z " transform="translate(336,807)" style="fill: #060606;"/><path d="M0 0 C2.64 0 5.28 0 8 0 C9.32 4.29 10.64 8.58 12 13 C12.33 13 12.66 13 13 13 C14.32 8.71 15.64 4.42 17 0 C19.31 0 21.62 0 24 0 C22.43889635 8.74218041 19.21518143 16.75983375 16 25 C13.36 25 10.72 25 8 25 C6.65882147 21.39870379 5.3284161 17.79352141 4 14.1875 C3.6184375 13.16333984 3.236875 12.13917969 2.84375 11.08398438 C2.4828125 10.10107422 2.121875 9.11816406 1.75 8.10546875 C1.41484375 7.19949951 1.0796875 6.29353027 0.734375 5.36010742 C0 3 0 3 0 0 Z " transform="translate(137,1392)" style="fill: #0B0B0B;"/><path d="M0 0 C2.64 0 5.28 0 8 0 C9.32 4.29 10.64 8.58 12 13 C12.45375 11.783125 12.9075 10.56625 13.375 9.3125 C14.54452941 6.1919073 15.74562438 3.08769384 17 0 C19.31 0 21.62 0 24 0 C22.43889635 8.74218041 19.21518143 16.75983375 16 25 C13.36 25 10.72 25 8 25 C6.66165014 21.21008507 5.33017337 17.41779164 4 13.625 C3.6184375 12.54476563 3.236875 11.46453125 2.84375 10.3515625 C2.4828125 9.3203125 2.121875 8.2890625 1.75 7.2265625 C1.41484375 6.27346191 1.0796875 5.32036133 0.734375 4.33837891 C0 2 0 2 0 0 Z " transform="translate(137,1105)" style="fill: #0B0A0A;"/><path d="M0 0 C0 1.98 0 3.96 0 6 C-1.65 6 -3.3 6 -5 6 C-5 6.99 -5 7.98 -5 9 C-3.35 9 -1.7 9 0 9 C0 10.65 0 12.3 0 14 C-1.65 14 -3.3 14 -5 14 C-5 20.6 -5 27.2 -5 34 C-7.31 34 -9.62 34 -12 34 C-12 27.4 -12 20.8 -12 14 C-13.32 14 -14.64 14 -16 14 C-16 12.35 -16 10.7 -16 9 C-14.68 9 -13.36 9 -12 9 C-12.0825 8.2575 -12.165 7.515 -12.25 6.75 C-12 4 -12 4 -10.5 1.6875 C-6.87174359 -0.76157308 -4.32159775 -0.28810652 0 0 Z " transform="translate(221,798)" style="fill: #050505;"/><path d="M0 0 C0 1.98 0 3.96 0 6 C-0.639375 6.12375 -1.27875 6.2475 -1.9375 6.375 C-2.618125 6.58125 -3.29875 6.7875 -4 7 C-4.33 7.66 -4.66 8.32 -5 9 C-3.35 9 -1.7 9 0 9 C0 10.65 0 12.3 0 14 C-1.65 14 -3.3 14 -5 14 C-5 20.6 -5 27.2 -5 34 C-7.31 34 -9.62 34 -12 34 C-12 27.4 -12 20.8 -12 14 C-13.32 14 -14.64 14 -16 14 C-16 12.35 -16 10.7 -16 9 C-14.68 9 -13.36 9 -12 9 C-11.938125 8.071875 -11.87625 7.14375 -11.8125 6.1875 C-11 3 -11 3 -8.8125 1.125 C-5.66822424 -0.1327103 -3.35625403 -0.23415726 0 0 Z " transform="translate(217,404)" style="fill: #090909;"/><path d="M0 0 C2.31 0 4.62 0 7 0 C7 2.31 7 4.62 7 7 C8.65 7 10.3 7 12 7 C12 8.65 12 10.3 12 12 C10.35 12 8.7 12 7 12 C7.33 16.29 7.66 20.58 8 25 C9.32 25.33 10.64 25.66 12 26 C12 27.98 12 29.96 12 32 C10.56416999 32.10836453 9.1259798 32.18576167 7.6875 32.25 C6.88699219 32.29640625 6.08648437 32.3428125 5.26171875 32.390625 C3 32 3 32 1.21875 30.5 C-0.51009609 26.95364904 -0.32015147 23.60029395 -0.1875 19.75 C-0.16719727 18.63238281 -0.16719727 18.63238281 -0.14648438 17.4921875 C-0.11127204 15.66114584 -0.05746851 13.83047831 0 12 C-1.32 12 -2.64 12 -4 12 C-4 10.35 -4 8.7 -4 7 C-2.68 7 -1.36 7 0 7 C0 4.69 0 2.38 0 0 Z " transform="translate(271,1327)" style="fill: #070707;"/><path d="M0 0 C2.31 0 4.62 0 7 0 C7 2.31 7 4.62 7 7 C8.65 7 10.3 7 12 7 C12 8.65 12 10.3 12 12 C10.35 12 8.7 12 7 12 C7.33 16.29 7.66 20.58 8 25 C9.32 25.33 10.64 25.66 12 26 C12 27.98 12 29.96 12 32 C10.56416999 32.10836453 9.1259798 32.18576167 7.6875 32.25 C6.88699219 32.29640625 6.08648437 32.3428125 5.26171875 32.390625 C3 32 3 32 1.21875 30.5 C-0.51009609 26.95364904 -0.32015147 23.60029395 -0.1875 19.75 C-0.16719727 18.63238281 -0.16719727 18.63238281 -0.14648438 17.4921875 C-0.11127204 15.66114584 -0.05746851 13.83047831 0 12 C-1.32 12 -2.64 12 -4 12 C-4 10.35 -4 8.7 -4 7 C-2.68 7 -1.36 7 0 7 C0 4.69 0 2.38 0 0 Z " transform="translate(248,1040)" style="fill: #090909;"/><path d="M0 0 C2.31 0 4.62 0 7 0 C7 11.22 7 22.44 7 34 C4.69 34 2.38 34 0 34 C0 22.78 0 11.56 0 0 Z " transform="translate(231,1325)" style="fill: #080808;"/><path d="M0 0 C2.31 0 4.62 0 7 0 C7 11.22 7 22.44 7 34 C4.69 34 2.38 34 0 34 C0 22.78 0 11.56 0 0 Z " transform="translate(208,1038)" style="fill: #050505;"/><path d="M0 0 C2.31 0 4.62 0 7 0 C7 11.22 7 22.44 7 34 C4.69 34 2.38 34 0 34 C0 22.78 0 11.56 0 0 Z " transform="translate(224,798)" style="fill: #070707;"/><path d="M0 0 C2.31 0 4.62 0 7 0 C7 11.22 7 22.44 7 34 C4.69 34 2.38 34 0 34 C0 22.78 0 11.56 0 0 Z " transform="translate(221,404)" style="fill: #0A0A0A;"/><path d="M0 0 C0 2.31 0 4.62 0 7 C-2.64 7.33 -5.28 7.66 -8 8 C-8.33 13.61 -8.66 19.22 -9 25 C-11.31 25 -13.62 25 -16 25 C-16 17.08 -16 9.16 -16 1 C-14.02 1 -12.04 1 -10 1 C-9.67 1.66 -9.34 2.32 -9 3 C-8.62875 2.505 -8.2575 2.01 -7.875 1.5 C-5.25305607 -0.59755514 -3.26157528 -0.21743835 0 0 Z " transform="translate(146,1334)" style="fill: #080807;"/><path d="M0 0 C2.31 0 4.62 0 7 0 C7 8.25 7 16.5 7 25 C4.69 25 2.38 25 0 25 C0 16.75 0 8.5 0 0 Z " transform="translate(164,1392)" style="fill: #050504;"/><path d="M0 0 C2.31 0 4.62 0 7 0 C7 8.25 7 16.5 7 25 C4.69 25 2.38 25 0 25 C0 16.75 0 8.5 0 0 Z " transform="translate(164,1105)" style="fill: #050504;"/><path d="M0 0 C2.31 0 4.62 0 7 0 C7 8.25 7 16.5 7 25 C4.69 25 2.38 25 0 25 C0 16.75 0 8.5 0 0 Z " transform="translate(168,807)" style="fill: #040404;"/><path d="M0 0 C2.31 0 4.62 0 7 0 C7 8.25 7 16.5 7 25 C4.69 25 2.38 25 0 25 C0 16.75 0 8.5 0 0 Z " transform="translate(86,807)" style="fill: #080808;"/><path d="M0 0 C2.31 0 4.62 0 7 0 C7 8.25 7 16.5 7 25 C4.69 25 2.38 25 0 25 C0 16.75 0 8.5 0 0 Z " transform="translate(164,413)" style="fill: #050505;"/><path d="M0 0 C2.875 0.3125 2.875 0.3125 6 1 C8.47342266 4.71013399 8.38503486 6.61060262 8 11 C6.8125 13.4375 6.8125 13.4375 5 15 C2.5 15.5 2.5 15.5 0 15 C-2.7489728 12.63019586 -2.98650259 11.12597587 -3.375 7.5 C-2.99007552 3.90737156 -2.45622327 2.55856591 0 0 Z " transform="translate(185,1397)" style="fill: #EEEEEE;"/><path d="M0 0 C2.875 0.3125 2.875 0.3125 6 1 C8.47342266 4.71013399 8.38503486 6.61060262 8 11 C6.8125 13.4375 6.8125 13.4375 5 15 C2.5 15.5 2.5 15.5 0 15 C-2.7489728 12.63019586 -2.98650259 11.12597587 -3.375 7.5 C-2.99007552 3.90737156 -2.45622327 2.55856591 0 0 Z " transform="translate(185,1110)" style="fill: #EEEEEE;"/><path d="M0 0 C3.07760759 1.15410285 4.00192413 2.02019436 5.5 4.9375 C6.04166198 8.65175357 5.96472911 10.26622462 3.8125 13.375 C1.5 14.9375 1.5 14.9375 -1.125 14.8125 C-3.5 13.9375 -3.5 13.9375 -5.5 11.9375 C-5.80078125 9.87890625 -5.80078125 9.87890625 -5.8125 7.5 C-5.82925781 6.71753906 -5.84601563 5.93507813 -5.86328125 5.12890625 C-5.25791915 1.47720582 -3.70658884 -0.09266472 0 0 Z " transform="translate(96.5,418.0625)" style="fill: #F1F1F1;"/><path d="M0 0 C3.11029337 1.16636001 4.07496539 1.92909361 5.5 4.9375 C5.37788777 8.41769859 5.15593246 10.92080469 3.25 13.875 C0.83202727 15.34305487 -0.72590267 15.3642842 -3.5 14.9375 C-5.56520632 11.83969052 -5.79477024 10.9834519 -5.8125 7.4375 C-5.82925781 6.6640625 -5.84601563 5.890625 -5.86328125 5.09375 C-5.25124597 1.46102445 -3.68136837 -0.09203421 0 0 Z " transform="translate(113.5,1339.0625)" style="fill: #F1F1F1;"/><path d="M0 0 C2.4375 0.8125 2.4375 0.8125 4.4375 2.8125 C4.73828125 4.87109375 4.73828125 4.87109375 4.75 7.25 C4.76675781 8.03246094 4.78351563 8.81492187 4.80078125 9.62109375 C4.35379112 12.31745355 3.59641887 13.18303029 1.4375 14.8125 C-1.125 15.1875 -1.125 15.1875 -3.5625 14.8125 C-5.62770632 11.71469052 -5.85727024 10.8584519 -5.875 7.3125 C-5.89175781 6.5390625 -5.90851563 5.765625 -5.92578125 4.96875 C-5.30392048 1.2777054 -3.73881028 -0.27357148 0 0 Z " transform="translate(275.5625,1052.1875)" style="fill: #F4F4F4;"/><path d="M0 0 C2.4375 0.8125 2.4375 0.8125 4.4375 2.8125 C4.73828125 4.87109375 4.73828125 4.87109375 4.75 7.25 C4.76675781 8.03246094 4.78351563 8.81492187 4.80078125 9.62109375 C4.35379112 12.31745355 3.59641887 13.18303029 1.4375 14.8125 C-1.125 15.1875 -1.125 15.1875 -3.5625 14.8125 C-5.62770632 11.71469052 -5.85727024 10.8584519 -5.875 7.3125 C-5.89175781 6.5390625 -5.90851563 5.765625 -5.92578125 4.96875 C-5.30392048 1.2777054 -3.73881028 -0.27357148 0 0 Z " transform="translate(298.5625,1339.1875)" style="fill: #F5F5F5;"/><path d="M0 0 C2.5625 0.375 2.5625 0.375 4.375 2 C5.88353306 5.01706612 5.91739252 7.03901029 5.5625 10.375 C4.5725 11.86 4.5725 11.86 3.5625 13.375 C0.5625 13.6875 0.5625 13.6875 -2.4375 13.375 C-4.4375 11.375 -4.4375 11.375 -4.703125 9.28125 C-4.69539062 8.09015625 -4.69539062 8.09015625 -4.6875 6.875 C-4.69265625 6.0809375 -4.6978125 5.286875 -4.703125 4.46875 C-4.29501363 1.25187213 -3.12758182 0.48116643 0 0 Z " transform="translate(185.4375,1338.625)" style="fill: #EEEEEE;"/><path d="M0 0 C2.4375 0.875 2.4375 0.875 4.4375 3.875 C4.77707563 7.94990752 4.75082486 9.40501271 2.4375 12.875 C-0.5625 13.1875 -0.5625 13.1875 -3.5625 12.875 C-5.5625 10.875 -5.5625 10.875 -5.875 6.9375 C-5.79910758 4.32869811 -5.69350187 3.10252957 -4.375 0.8125 C-2.5625 -0.125 -2.5625 -0.125 0 0 Z " transform="translate(163.5625,1052.125)" style="fill: #F3F3F3;"/><path d="M0 0 C2.4375 0.875 2.4375 0.875 4.4375 3.875 C4.77707563 7.94990752 4.75082486 9.40501271 2.4375 12.875 C-0.5625 13.1875 -0.5625 13.1875 -3.5625 12.875 C-5.5625 10.875 -5.5625 10.875 -5.875 6.9375 C-5.79910758 4.32869811 -5.69350187 3.10252957 -4.375 0.8125 C-2.5625 -0.125 -2.5625 -0.125 0 0 Z " transform="translate(110.5625,812.125)" style="fill: #F4F4F4;"/><path d="M0 0 C1.62463842 -0.05395478 3.24978541 -0.09277195 4.875 -0.125 C5.77992187 -0.14820313 6.68484375 -0.17140625 7.6171875 -0.1953125 C10 0 10 0 12 2 C12.125 5.125 12.125 5.125 12 8 C9.47524538 9.26237731 7.68799534 9.09856404 4.875 9.0625 C3.96492188 9.05347656 3.05484375 9.04445313 2.1171875 9.03515625 C1.41851562 9.02355469 0.71984375 9.01195312 0 9 C0 6.03 0 3.06 0 0 Z " transform="translate(99,1044)" style="fill: #F5F5F5;"/><path d="M0 0 C0.6875 1.8125 0.6875 1.8125 1 4 C-0.125 5.75 -0.125 5.75 -2 7 C-4.5625 7.3125 -4.5625 7.3125 -7 7 C-7.66 6.34 -8.32 5.68 -9 5 C-11.32275177 4.59952556 -13.65739357 4.2602896 -16 4 C-16 3.67 -16 3.34 -16 3 C-14.51886719 2.80083984 -14.51886719 2.80083984 -13.0078125 2.59765625 C-11.72648438 2.42105469 -10.44515625 2.24445313 -9.125 2.0625 C-7.21074219 1.80146484 -7.21074219 1.80146484 -5.2578125 1.53515625 C-2.12440546 1.18566773 -2.12440546 1.18566773 0 0 Z " transform="translate(190,1356)" style="fill: #E4E4E4;"/><path d="M0 0 C0.6875 1.8125 0.6875 1.8125 1 4 C-0.125 5.75 -0.125 5.75 -2 7 C-4.5625 7.3125 -4.5625 7.3125 -7 7 C-7.66 6.34 -8.32 5.68 -9 5 C-11.32275177 4.59952556 -13.65739357 4.2602896 -16 4 C-16 3.67 -16 3.34 -16 3 C-14.51886719 2.80083984 -14.51886719 2.80083984 -13.0078125 2.59765625 C-11.72648438 2.42105469 -10.44515625 2.24445313 -9.125 2.0625 C-7.21074219 1.80146484 -7.21074219 1.80146484 -5.2578125 1.53515625 C-2.12440546 1.18566773 -2.12440546 1.18566773 0 0 Z " transform="translate(167,1069)" style="fill: #E5E5E5;"/><path d="M0 0 C0.6875 1.8125 0.6875 1.8125 1 4 C-0.125 5.75 -0.125 5.75 -2 7 C-4.6875 7.1875 -4.6875 7.1875 -7 7 C-7.33 6.01 -7.66 5.02 -8 4 C-10.64 4 -13.28 4 -16 4 C-16 3.67 -16 3.34 -16 3 C-14.51886719 2.80083984 -14.51886719 2.80083984 -13.0078125 2.59765625 C-11.72648437 2.42105469 -10.44515625 2.24445312 -9.125 2.0625 C-7.21074219 1.80146484 -7.21074219 1.80146484 -5.2578125 1.53515625 C-2.12440546 1.18566773 -2.12440546 1.18566773 0 0 Z " transform="translate(114,829)" style="fill: #E8E8E8;"/><path d="M0 0 C-0.75 4.75 -0.75 4.75 -3 7 C-6.125 6.625 -6.125 6.625 -9 6 C-8.625 3.5625 -8.625 3.5625 -8 1 C-5.29120665 -0.35439668 -2.99066732 -0.06501451 0 0 Z " transform="translate(235,1061)" style="fill: #E0E0E0;"/><path d="M0 0 C-0.3125 2.375 -0.3125 2.375 -1 5 C-4 7 -4 7 -6.6875 6.625 C-7.450625 6.41875 -8.21375 6.2125 -9 6 C-8.625 3.5625 -8.625 3.5625 -8 1 C-5.29120665 -0.35439668 -2.99066732 -0.06501451 0 0 Z " transform="translate(258,1348)" style="fill: #E2E2E2;"/><path d="M0 0 C0.33 0.99 0.66 1.98 1 3 C3.31 3 5.62 3 8 3 C8.33 2.01 8.66 1.02 9 0 C10.98 0 12.96 0 15 0 C14.67 1.65 14.34 3.3 14 5 C9.1666528 5.08333357 4.76307437 4.95261487 0 4 C0 2.68 0 1.36 0 0 Z " transform="translate(242,1339)" style="fill: #E5E5E5;"/><path d="M0 0 C2.31 0 4.62 0 7 0 C7 1.98 7 3.96 7 6 C4.69 6 2.38 6 0 6 C0 4.02 0 2.04 0 0 Z " transform="translate(164,1383)" style="fill: #030303;"/><path d="M0 0 C2.31 0 4.62 0 7 0 C7 1.98 7 3.96 7 6 C4.69 6 2.38 6 0 6 C0 4.02 0 2.04 0 0 Z " transform="translate(164,1096)" style="fill: #030303;"/><path d="M0 0 C1.98 0 3.96 0 6 0 C5.67 1.65 5.34 3.3 5 5 C0.48382401 5.07654536 -3.59085217 5.10228696 -8 4 C-8 3.67 -8 3.34 -8 3 C-5.69 3 -3.38 3 -1 3 C-0.67 2.01 -0.34 1.02 0 0 Z " transform="translate(228,1052)" style="fill: #EFEFEF;"/><path d="M0 0 C2.31 0 4.62 0 7 0 C7 1.98 7 3.96 7 6 C4.69 6 2.38 6 0 6 C0 4.02 0 2.04 0 0 Z " transform="translate(168,798)" style="fill: #020202;"/><path d="M0 0 C2.31 0 4.62 0 7 0 C7 1.98 7 3.96 7 6 C4.69 6 2.38 6 0 6 C0 4.02 0 2.04 0 0 Z " transform="translate(86,798)" style="fill: #060606;"/><path d="M0 0 C2.31 0 4.62 0 7 0 C7 1.98 7 3.96 7 6 C4.69 6 2.38 6 0 6 C0 4.02 0 2.04 0 0 Z " transform="translate(164,404)" style="fill: #030303;"/><path d="M0 0 C1.2065625 0.0309375 1.2065625 0.0309375 2.4375 0.0625 C3.0975 1.7125 3.7575 3.3625 4.4375 5.0625 C1.1375 5.0625 -2.1625 5.0625 -5.5625 5.0625 C-3.06867284 0.07484568 -3.06867284 0.07484568 0 0 Z " transform="translate(135.5625,1051.9375)" style="fill: #D7D7D7;"/><path d="M0 0 C2.5625 0.1875 2.5625 0.1875 4.5625 2.1875 C4.5625 3.1775 4.5625 4.1675 4.5625 5.1875 C1.5925 5.1875 -1.3775 5.1875 -4.4375 5.1875 C-3.20220588 0.24632353 -3.20220588 0.24632353 0 0 Z " transform="translate(215.4375,1396.8125)" style="fill: #DADADA;"/><path d="M0 0 C2.5625 0.1875 2.5625 0.1875 4.5625 2.1875 C4.5625 3.1775 4.5625 4.1675 4.5625 5.1875 C1.5925 5.1875 -1.3775 5.1875 -4.4375 5.1875 C-3.20220588 0.24632353 -3.20220588 0.24632353 0 0 Z " transform="translate(123.4375,1396.8125)" style="fill: #DADADA;"/><path d="M0 0 C2.00720923 0.28674418 4.0085944 0.61866701 6 1 C6.33 2.32 6.66 3.64 7 5 C3.7 5 0.4 5 -3 5 C-1 1 -1 1 0 0 Z " transform="translate(156,1339)" style="fill: #DBDBDB;"/><path d="M0 0 C2.00720923 0.28674418 4.0085944 0.61866701 6 1 C6.33 2.32 6.66 3.64 7 5 C3.7 5 0.4 5 -3 5 C-1 1 -1 1 0 0 Z " transform="translate(295,1110)" style="fill: #DBDBDB;"/><path d="M0 0 C2.5625 0.1875 2.5625 0.1875 4.5625 2.1875 C4.5625 3.1775 4.5625 4.1675 4.5625 5.1875 C1.5925 5.1875 -1.3775 5.1875 -4.4375 5.1875 C-3.20220588 0.24632353 -3.20220588 0.24632353 0 0 Z " transform="translate(215.4375,1109.8125)" style="fill: #DADADA;"/><path d="M0 0 C2.5625 0.1875 2.5625 0.1875 4.5625 2.1875 C4.5625 3.1775 4.5625 4.1675 4.5625 5.1875 C1.5925 5.1875 -1.3775 5.1875 -4.4375 5.1875 C-3.20220588 0.24632353 -3.20220588 0.24632353 0 0 Z " transform="translate(123.4375,1109.8125)" style="fill: #DADADA;"/><path d="M0 0 C2.5625 0.1875 2.5625 0.1875 4.5625 2.1875 C4.5625 3.1775 4.5625 4.1675 4.5625 5.1875 C1.5925 5.1875 -1.3775 5.1875 -4.4375 5.1875 C-3.20220588 0.24632353 -3.20220588 0.24632353 0 0 Z " transform="translate(356.4375,811.8125)" style="fill: #D9D9D9;"/><path d="M0 0 C2.00720923 0.28674418 4.0085944 0.61866701 6 1 C6.33 2.32 6.66 3.64 7 5 C3.7 5 0.4 5 -3 5 C-1 1 -1 1 0 0 Z " transform="translate(273,812)" style="fill: #DBDBDB;"/><path d="M0 0 C2.5625 0.1875 2.5625 0.1875 4.5625 2.1875 C4.5625 3.1775 4.5625 4.1675 4.5625 5.1875 C1.5925 5.1875 -1.3775 5.1875 -4.4375 5.1875 C-3.20220588 0.24632353 -3.20220588 0.24632353 0 0 Z " transform="translate(271.4375,417.8125)" style="fill: #DADADA;"/><path d="M0 0 C2.4375 0.1875 2.4375 0.1875 5 1 C5.66 2.32 6.32 3.64 7 5 C3.7 5 0.4 5 -3 5 C-1 1 -1 1 0 0 Z " transform="translate(295,1397)" style="fill: #DDDDDD;"/><path d="M0 0 C2.4375 0.1875 2.4375 0.1875 5 1 C5.66 2.32 6.32 3.64 7 5 C3.7 5 0.4 5 -3 5 C-1 1 -1 1 0 0 Z " transform="translate(351,418)" style="fill: #DEDEDD;"/></svg>